<?xml version="1.0" encoding="iso-8859-1"?>
<!-- Generator: Adobe Illustrator 18.0.0, SVG Export Plug-In . SVG Version: 6.00 Build 0)  -->
<!DOCTYPE svg PUBLIC "-//W3C//DTD SVG 1.1//EN" "http://www.w3.org/Graphics/SVG/1.1/DTD/svg11.dtd">
<svg xmlns="http://www.w3.org/2000/svg" xmlns:xlink="http://www.w3.org/1999/xlink" version="1.1" id="Capa_1" x="0px" y="0px" viewBox="0 0 297 297" style="enable-background:new 0 0 297 297;" xml:space="preserve" width="512px" height="512px">
<path d="M244.356,59.391c-15.515-10.666-34.048-18.438-54.224-22.934V9.683c0-5.348-4.335-9.683-9.682-9.683h-63.902  c-5.347,0-9.682,4.335-9.682,9.683v26.774c-20.176,4.496-38.709,12.269-54.224,22.934c-26.846,18.455-41.63,43.354-41.63,70.108  c0,26.754,14.784,51.652,41.63,70.108c15.515,10.665,34.048,18.438,54.224,22.934v26.774c0,5.347,4.335,9.683,9.682,9.683h7.077  c-0.511,2.015-0.783,4.122-0.783,6.293v22.027c0,5.347,4.335,9.682,9.682,9.682s9.683-4.335,9.683-9.682v-22.027  c0-3.47,2.823-6.293,6.293-6.293c3.47,0,6.293,2.823,6.293,6.293v22.027c0,5.347,4.336,9.682,9.683,9.682s9.682-4.335,9.682-9.682  v-22.027c0-2.171-0.272-4.278-0.783-6.293h7.077c5.347,0,9.682-4.336,9.682-9.683v-26.774c20.176-4.496,38.709-12.268,54.224-22.934  c26.846-18.456,41.63-43.355,41.63-70.108C285.986,102.744,271.202,77.846,244.356,59.391z M119.06,58.551  c-8.062,18.686-12.192,44.9-12.192,70.948c0,26.047,4.131,52.262,12.192,70.948c-24.037-12.424-40.755-39.545-40.755-70.948  C78.305,98.095,95.022,70.974,119.06,58.551z M126.231,129.499c0-51.583,15.609-78.184,22.269-78.184  c6.659,0,22.269,26.601,22.269,78.184s-15.609,78.184-22.269,78.184C141.841,207.683,126.231,181.082,126.231,129.499z   M177.94,200.447c8.062-18.687,12.192-44.901,12.192-70.948c0-26.048-4.131-52.262-12.192-70.948  c24.037,12.423,40.755,39.544,40.755,70.948C218.695,160.902,201.977,188.023,177.94,200.447z M126.231,31.951V19.364h44.537v12.587  H126.231z M30.378,129.499c0-20.185,11.804-39.417,33.236-54.152c5.379-3.698,11.201-6.986,17.371-9.87  C67.263,82.622,58.94,105.021,58.94,129.499c0,24.478,8.322,46.877,22.045,64.023c-6.17-2.884-11.992-6.173-17.371-9.871  C42.182,168.916,30.378,149.684,30.378,129.499z M170.769,227.047v12.586h-44.537v-12.586H170.769z M233.386,183.65  c-5.379,3.698-11.201,6.987-17.371,9.871c13.723-17.145,22.045-39.545,22.045-64.023c0-24.477-8.322-46.877-22.045-64.022  c6.17,2.884,11.992,6.172,17.371,9.87c21.433,14.735,33.236,33.967,33.236,54.152C266.622,149.684,254.818,168.916,233.386,183.65z" fill="#871c29"/>
<g>
</g>
<g>
</g>
<g>
</g>
<g>
</g>
<g>
</g>
<g>
</g>
<g>
</g>
<g>
</g>
<g>
</g>
<g>
</g>
<g>
</g>
<g>
</g>
<g>
</g>
<g>
</g>
<g>
</g>
</svg>
