<?xml version="1.0" encoding="iso-8859-1"?>
<!-- Generator: Adobe Illustrator 19.0.0, SVG Export Plug-In . SVG Version: 6.00 Build 0)  -->
<svg version="1.1" id="Layer_1" xmlns="http://www.w3.org/2000/svg" xmlns:xlink="http://www.w3.org/1999/xlink" x="0px" y="0px"
	 viewBox="0 0 492 492" style="enable-background:new 0 0 492 492;" xml:space="preserve">
<ellipse style="fill:#C9C9C9;" cx="246.4" cy="433.2" rx="177.6" ry="20"/>
<circle style="fill:#D10D0D;" cx="246.4" cy="251.6" r="176"/>
<path style="fill:#AF1E1E;" d="M246.4,75.6c97.6,0,176,78.4,176,176c0,96.8-78.4,176-176,176"/>
<path style="fill:#F49E2C;" d="M492,208.4c0,43.2-29.6,233.6-245.6,233.6S0.8,251.6,0.8,208.4s110.4-7.2,245.6-7.2
	C382.4,201.2,492,165.2,492,208.4z"/>
<path style="fill:#F9B66B;" d="M15.2,208.4c0-14.4,12.8-20,35.2-20.8C19.2,186.8,0,190.8,0,208.4C0.8,251.6,30.4,442,246.4,442
	c2.4,0,4.8,0,7.2,0C44.8,437.2,15.2,250.8,15.2,208.4z"/>
<path style="fill:#E58720;" d="M246.4,321.2c136,0,245.6-69.6,245.6-112.8s-109.6-7.2-245.6-7.2S0.8,166,0.8,208.4
	S110.4,321.2,246.4,321.2z"/>
<path style="fill:#F7DA2F;" d="M492,208.4c0,43.2-110.4,88-245.6,88c-136,0-245.6-44.8-245.6-88s109.6-7.2,245.6-7.2
	S492,165.2,492,208.4z"/>
<path style="fill:#FFC50B;" d="M492,208.4c0,43.2-110.4,88-245.6,88c-136,0-245.6-44.8-245.6-88s96,6.4,232,6.4S492,165.2,492,208.4
	z"/>
<path style="fill:#FFB40D;" d="M141.6,234.8l104.8,61.6c136,0,245.6-44.8,245.6-88s-109.6-7.2-245.6-7.2L141.6,234.8"/>
<path style="fill:#EFA30A;" d="M492,208.4c0-43.2-110.4-7.2-245.6-7.2l-104.8,34.4"/>
<g>
	<circle style="fill:#FFC50B;" cx="188.8" cy="322" r="6.4"/>
	<circle style="fill:#FFC50B;" cx="227.2" cy="322" r="6.4"/>
	<circle style="fill:#FFC50B;" cx="265.6" cy="322" r="6.4"/>
	<circle style="fill:#FFC50B;" cx="304" cy="322" r="6.4"/>
</g>
<path style="fill:#FFB40D;" d="M356.8,221.2c0,23.2-49.6,41.6-110.4,41.6S136,244.4,136,221.2S185.6,150,246.4,150
	S356.8,198.8,356.8,221.2z"/>
<path style="fill:#FFC50B;" d="M246.4,262.8c-60.8,0-110.4-18.4-110.4-41.6S185.6,150,246.4,150"/>
<g>
	
		<ellipse transform="matrix(-0.3295 -0.9442 0.9442 -0.3295 120.4639 425.3785)" style="fill:#F7DA2F;" cx="211.277" cy="169.914" rx="8" ry="29.601"/>
	<circle style="fill:#F7DA2F;" cx="173.6" cy="188.4" r="4"/>
	<circle style="fill:#F7DA2F;" cx="160.8" cy="198" r="2.4"/>
	
		<ellipse transform="matrix(0.0774 -0.997 0.997 0.0774 -170.3194 216.771)" style="fill:#F7DA2F;" cx="31.966" cy="200.413" rx="4.8" ry="20"/>
</g>
<g>
	<path style="fill:#5E0404;" d="M254.4,410c0,4-4,7.2-8,7.2l0,0c-4,0-8-3.2-8-7.2v-57.6c0-4,4-7.2,8-7.2l0,0c4,0,8,3.2,8,7.2V410z"
		/>
	<path style="fill:#5E0404;" d="M217.6,390c-4,0-7.2-4-7.2-8l0,0c0-4,3.2-8,7.2-8h57.6c4,0,7.2,4,7.2,8l0,0c0,4-3.2,8-7.2,8H217.6z"
		/>
	<circle style="fill:#5E0404;" cx="218.4" cy="352.4" r="7.2"/>
	<path style="fill:#5E0404;" d="M281.6,352.4c0,4-3.2,7.2-7.2,7.2s-7.2-3.2-7.2-7.2s3.2-7.2,7.2-7.2
		C278.4,345.2,281.6,348.4,281.6,352.4z"/>
	<circle style="fill:#5E0404;" cx="218.4" cy="410" r="7.2"/>
	<path style="fill:#5E0404;" d="M281.6,410c0,4-3.2,7.2-7.2,7.2s-7.2-3.2-7.2-7.2s3.2-7.2,7.2-7.2S281.6,406,281.6,410z"/>
</g>
<g>
	<polygon style="fill:#FFC50B;" points="438.4,74.8 430.4,50 422.4,74.8 430.4,72.4 	"/>
	<polygon style="fill:#FFC50B;" points="438.4,90.8 430.4,93.2 422.4,90.8 430.4,115.6 	"/>
	<polygon style="fill:#FFC50B;" points="422.4,74.8 397.6,82.8 422.4,90.8 420,82.8 	"/>
	<polygon style="fill:#FFC50B;" points="438.4,90.8 463.2,82.8 438.4,74.8 440.8,82.8 	"/>
	<polygon style="fill:#FFC50B;" points="36.8,124.4 32,107.6 26.4,124.4 32,122.8 	"/>
	<polygon style="fill:#FFC50B;" points="36.8,134.8 32,136.4 26.4,134.8 32,151.6 	"/>
	<polygon style="fill:#FFC50B;" points="26.4,124.4 9.6,129.2 26.4,134.8 24.8,129.2 	"/>
	<polygon style="fill:#FFC50B;" points="36.8,134.8 53.6,129.2 36.8,124.4 38.4,129.2 	"/>
	<polygon style="fill:#FFC50B;" points="209.6,113.2 217.6,98 202.4,106 207.2,108.4 	"/>
	<polygon style="fill:#FFC50B;" points="202.4,121.2 197.6,118.8 194.4,113.2 186.4,129.2 	"/>
	<polygon style="fill:#FFC50B;" points="202.4,106 186.4,98 194.4,113.2 197.6,108.4 	"/>
	<polygon style="fill:#FFC50B;" points="202.4,121.2 217.6,129.2 209.6,113.2 207.2,118.8 	"/>
	<polygon style="fill:#FFC50B;" points="103.2,60.4 114.4,38.8 92,50 99.2,54 	"/>
	<polygon style="fill:#FFC50B;" points="92,71.6 85.6,67.6 81.6,60.4 70.4,82.8 	"/>
	<polygon style="fill:#FFC50B;" points="92,50 70.4,38.8 81.6,60.4 85.6,54 	"/>
	<polygon style="fill:#FFC50B;" points="92,71.6 114.4,82.8 103.2,60.4 99.2,67.6 	"/>
</g>
<g>
</g>
<g>
</g>
<g>
</g>
<g>
</g>
<g>
</g>
<g>
</g>
<g>
</g>
<g>
</g>
<g>
</g>
<g>
</g>
<g>
</g>
<g>
</g>
<g>
</g>
<g>
</g>
<g>
</g>
</svg>
