<?xml version="1.0" encoding="iso-8859-1"?>
<!-- Generator: Adobe Illustrator 19.0.0, SVG Export Plug-In . SVG Version: 6.00 Build 0)  -->
<svg version="1.1" id="Layer_1" xmlns="http://www.w3.org/2000/svg" xmlns:xlink="http://www.w3.org/1999/xlink" x="0px" y="0px"
	 viewBox="0 0 504.263 504.263" style="enable-background:new 0 0 504.263 504.263;" xml:space="preserve">
<path style="fill:#5E0404;" d="M256.131,487.2c0,6.4-1.6,12-4,12l0,0c-2.4,0-4-5.6-4-12V106.4c0-6.4,1.6-12,4-12l0,0
	c2.4,0,4,5.6,4,12V487.2z"/>
<polygon style="fill:#D10D0D;" points="213.731,184 160.131,130.4 160.131,54.4 213.731,0 290.531,0 344.131,54.4 344.131,130.4 
	290.531,184 "/>
<polyline style="fill:#8C0000;" points="290.531,0 344.131,54.4 344.131,130.4 290.531,184 213.731,184 160.131,130.4 "/>
<polygon style="fill:#FFC50B;" points="230.531,144 200.131,113.6 200.131,70.4 230.531,40 273.731,40 304.131,70.4 304.131,113.6 
	273.731,144 "/>
<polyline style="fill:#FF7C10;" points="273.731,40 304.131,70.4 304.131,113.6 273.731,144 230.531,144 200.131,113.6 "/>
<g>
	<circle style="fill:#8C0000;" cx="251.331" cy="76.8" r="5.6"/>
	<path style="fill:#8C0000;" d="M252.131,60c-17.6,0-32,14.4-32,32s14.4,32,32,32s32-14.4,32-32S269.731,60,252.131,60z
		 M251.331,114.4c-3.2,0-5.6-2.4-5.6-5.6s2.4-5.6,5.6-5.6c3.2,0,5.6,2.4,5.6,5.6S254.531,114.4,251.331,114.4z M252.131,92
		c-7.2,2.4-14.4,4.8-14.4,14.4c0,8,6.4,14.4,14.4,14.4c-16,0-28.8-12.8-28.8-28.8s12.8-28.8,28.8-28.8c8,0,14.4,6.4,14.4,14.4
		C266.531,88,259.331,89.6,252.131,92z"/>
	<path style="fill:#8C0000;" d="M268.931,12c0,1.6-0.8,2.4-2.4,2.4h-28.8c-1.6,0-2.4-0.8-2.4-2.4l0,0c0-1.6,0.8-2.4,2.4-2.4h28.8
		C268.131,9.6,268.931,11.2,268.931,12L268.931,12z"/>
	<path style="fill:#8C0000;" d="M268.931,20c0,1.6-0.8,2.4-2.4,2.4h-28.8c-1.6,0-2.4-0.8-2.4-2.4l0,0c0-1.6,0.8-2.4,2.4-2.4h28.8
		C268.131,17.6,268.931,18.4,268.931,20L268.931,20z"/>
	<path style="fill:#8C0000;" d="M268.931,28c0,1.6-0.8,2.4-2.4,2.4h-28.8c-1.6,0-2.4-0.8-2.4-2.4l0,0c0-1.6,0.8-2.4,2.4-2.4h28.8
		C268.131,25.6,268.931,26.4,268.931,28L268.931,28z"/>
</g>
<g>
	<path style="fill:#D10D0D;" d="M268.931,154.4c0,1.6-0.8,2.4-2.4,2.4h-28.8c-1.6,0-2.4-0.8-2.4-2.4l0,0c0-1.6,0.8-2.4,2.4-2.4h28.8
		C268.131,152.8,268.931,153.6,268.931,154.4L268.931,154.4z"/>
	<path style="fill:#D10D0D;" d="M268.931,162.4c0,1.6-0.8,2.4-2.4,2.4h-28.8c-1.6,0-2.4-0.8-2.4-2.4l0,0c0-1.6,0.8-2.4,2.4-2.4h28.8
		C268.131,160,268.931,161.6,268.931,162.4L268.931,162.4z"/>
	<path style="fill:#D10D0D;" d="M268.931,170.4c0,1.6-0.8,2.4-2.4,2.4h-28.8c-1.6,0-2.4-0.8-2.4-2.4l0,0c0-1.6,0.8-2.4,2.4-2.4h28.8
		C268.131,168,268.931,168.8,268.931,170.4L268.931,170.4z"/>
</g>
<g>
	<path style="fill:#8C0000;" d="M208.131,23.2c0.8,0.8,0.8,2.4,0,3.2l-20.8,20.8c-0.8,0.8-2.4,0.8-3.2,0l0,0c-0.8-0.8-0.8-2.4,0-3.2
		l20.8-20.8C205.731,22.4,207.331,22.4,208.131,23.2L208.131,23.2z"/>
	<path style="fill:#8C0000;" d="M213.731,28.8c0.8,0.8,0.8,2.4,0,3.2l-20.8,20.8c-0.8,0.8-2.4,0.8-3.2,0l0,0c-0.8-0.8-0.8-2.4,0-3.2
		l20.8-20.8C211.331,28,212.931,28,213.731,28.8L213.731,28.8z"/>
	<path style="fill:#8C0000;" d="M219.331,34.4c0.8,0.8,0.8,2.4,0,3.2l-20.8,20.8c-0.8,0.8-2.4,0.8-3.2,0l0,0c-0.8-0.8-0.8-2.4,0-3.2
		l20.8-20.8C216.931,33.6,218.531,33.6,219.331,34.4L219.331,34.4z"/>
</g>
<g>
	<path style="fill:#D10D0D;" d="M308.931,124c0.8,0.8,0.8,2.4,0,3.2l-20.8,20.8c-0.8,0.8-2.4,0.8-3.2,0l0,0c-0.8-0.8-0.8-2.4,0-3.2
		l20.8-20.8C306.531,123.2,308.131,123.2,308.931,124L308.931,124z"/>
	<path style="fill:#D10D0D;" d="M314.531,129.6c0.8,0.8,0.8,2.4,0,3.2l-20.8,20.8c-0.8,0.8-2.4,0.8-3.2,0l0,0
		c-0.8-0.8-0.8-2.4,0-3.2l20.8-20.8C312.131,128.8,313.731,128.8,314.531,129.6L314.531,129.6z"/>
	<path style="fill:#D10D0D;" d="M320.131,135.2c0.8,0.8,0.8,2.4,0,3.2l-20.8,20.8c-0.8,0.8-2.4,0.8-3.2,0l0,0
		c-0.8-0.8-0.8-2.4,0-3.2l20.8-20.8C317.731,134.4,319.331,134.4,320.131,135.2L320.131,135.2z"/>
</g>
<g>
	<path style="fill:#8C0000;" d="M172.931,74.4c1.6,0,2.4,0.8,2.4,2.4v28.8c0,1.6-0.8,2.4-2.4,2.4l0,0c-1.6,0-2.4-0.8-2.4-2.4V76.8
		C170.531,75.2,172.131,74.4,172.931,74.4L172.931,74.4z"/>
	<path style="fill:#8C0000;" d="M180.931,74.4c1.6,0,2.4,0.8,2.4,2.4v28.8c0,1.6-0.8,2.4-2.4,2.4l0,0c-1.6,0-2.4-0.8-2.4-2.4V76.8
		C178.531,75.2,179.331,74.4,180.931,74.4L180.931,74.4z"/>
	<path style="fill:#8C0000;" d="M188.931,74.4c1.6,0,2.4,0.8,2.4,2.4v28.8c0,1.6-0.8,2.4-2.4,2.4l0,0c-1.6,0-2.4-0.8-2.4-2.4V76.8
		C186.531,75.2,187.331,74.4,188.931,74.4L188.931,74.4z"/>
</g>
<g>
	<path style="fill:#D10D0D;" d="M315.331,74.4c1.6,0,2.4,0.8,2.4,2.4v28.8c0,1.6-0.8,2.4-2.4,2.4l0,0c-1.6,0-2.4-0.8-2.4-2.4V76.8
		C312.931,75.2,314.531,74.4,315.331,74.4L315.331,74.4z"/>
	<path style="fill:#D10D0D;" d="M323.331,74.4c1.6,0,2.4,0.8,2.4,2.4v28.8c0,1.6-0.8,2.4-2.4,2.4l0,0c-1.6,0-2.4-0.8-2.4-2.4V76.8
		C320.931,75.2,322.531,74.4,323.331,74.4L323.331,74.4z"/>
	<path style="fill:#D10D0D;" d="M331.331,74.4c1.6,0,2.4,0.8,2.4,2.4v28.8c0,1.6-0.8,2.4-2.4,2.4l0,0c-1.6,0-2.4-0.8-2.4-2.4V76.8
		C328.931,75.2,329.731,74.4,331.331,74.4L331.331,74.4z"/>
	<path style="fill:#D10D0D;" d="M184.131,135.2c0.8-0.8,2.4-0.8,3.2,0l20.8,20.8c0.8,0.8,0.8,2.4,0,3.2l0,0c-0.8,0.8-2.4,0.8-3.2,0
		l-20.8-20.8C183.331,137.6,183.331,136,184.131,135.2L184.131,135.2z"/>
	<path style="fill:#D10D0D;" d="M189.731,129.6c0.8-0.8,2.4-0.8,3.2,0l20.8,20.8c0.8,0.8,0.8,2.4,0,3.2l0,0c-0.8,0.8-2.4,0.8-3.2,0
		l-20.8-20.8C188.931,132,188.931,130.4,189.731,129.6L189.731,129.6z"/>
	<path style="fill:#D10D0D;" d="M195.331,124c0.8-0.8,2.4-0.8,3.2,0l20.8,20.8c0.8,0.8,0.8,2.4,0,3.2l0,0c-0.8,0.8-2.4,0.8-3.2,0
		l-20.8-20.8C194.531,126.4,194.531,124.8,195.331,124L195.331,124z"/>
	<path style="fill:#D10D0D;" d="M284.931,34.4c0.8-0.8,2.4-0.8,3.2,0l20.8,20.8c0.8,0.8,0.8,2.4,0,3.2l0,0c-0.8,0.8-2.4,0.8-3.2,0
		l-20.8-20.8C284.131,36.8,284.131,35.2,284.931,34.4L284.931,34.4z"/>
	<path style="fill:#D10D0D;" d="M290.531,28.8c0.8-0.8,2.4-0.8,3.2,0l20.8,20.8c0.8,0.8,0.8,2.4,0,3.2l0,0c-0.8,0.8-2.4,0.8-3.2,0
		l-20.8-20.8C289.731,31.2,289.731,29.6,290.531,28.8L290.531,28.8z"/>
	<path style="fill:#D10D0D;" d="M296.131,23.2c0.8-0.8,2.4-0.8,3.2,0l20.8,20.8c0.8,0.8,0.8,2.4,0,3.2l0,0c-0.8,0.8-2.4,0.8-3.2,0
		l-20.8-20.8C295.331,25.6,295.331,24,296.131,23.2L296.131,23.2z"/>
</g>
<path style="fill:#5E0404;" d="M384.931,248.8c0,0,3.2,8.8,21.6,6.4s24,14.4,24,14.4s6.4-5.6,11.2,2.4c4.8,8,11.2,4,11.2,4l-4,8
	l-9.6-5.6l0.8,10.4h-7.2V280l-6.4,6.4l-2.4-7.2l6.4-2.4l-3.2-2.4l2.4-3.2c0,0-1.6-12.8-16.8-13.6c-15.2-0.8-17.6,7.2-31.2-4.8
	l1.6-5.6L384.931,248.8z"/>
<path style="fill:#8C1C1C;" d="M269.731,242.4c-8-2.4-12-10.4-10.4-18.4l5.6-18.4c2.4-8,10.4-12,18.4-9.6l90.4,27.2
	c8,2.4,12,10.4,9.6,18.4l-4.8,18.4c-2.4,8-10.4,12-18.4,9.6L269.731,242.4z"/>
<path style="fill:#5E0404;" d="M384.131,241.6l-5.6,18.4c-2.4,8-10.4,12-18.4,9.6l-90.4-27.2c-8-2.4-12-10.4-10.4-18.4l5.6-18.4"/>
<path style="fill:#FF7C10;" d="M379.331,264c-0.8,0-1.6-1.6-1.6-2.4l6.4-20.8c0-0.8,1.6-1.6,2.4-1.6l0,0c0.8,0,1.6,1.6,1.6,2.4
	l-6.4,20.8C381.731,263.2,380.131,264,379.331,264L379.331,264z"/>
<rect x="359.721" y="220.294" transform="matrix(0.9573 0.2892 -0.2892 0.9573 86.4207 -94.7124)" style="fill:#E51717;" width="8" height="49.601"/>
<polyline style="fill:#D10D0D;" points="352.131,268 360.131,270.4 374.531,223.2 "/>
<rect x="281.688" y="207.253" transform="matrix(-0.9572 -0.2896 0.2896 -0.9572 556.9166 546.511)" style="fill:#E51717;" width="74.404" height="49.602"/>
<polyline style="fill:#D10D0D;" points="276.131,244.8 347.331,266.4 361.731,219.2 "/>
<g>
	<circle style="fill:#5E0404;" cx="348.131" cy="240.8" r="1.6"/>
	<circle style="fill:#5E0404;" cx="341.731" cy="239.2" r="1.6"/>
	<circle style="fill:#5E0404;" cx="299.331" cy="225.6" r="1.6"/>
	<circle style="fill:#5E0404;" cx="292.931" cy="224" r="1.6"/>
</g>
<polygon style="fill:#FF7C10;" points="309.731,224 319.331,218.4 328.931,221.6 334.531,231.2 331.331,240.8 321.731,246.4 
	312.131,243.2 306.531,233.6 "/>
<g>
	<polygon style="fill:#5E0404;" points="313.731,226.4 319.331,223.2 326.531,225.6 329.731,231.2 327.331,238.4 321.731,241.6 
		314.531,239.2 311.331,233.6 	"/>
	<path style="fill:#5E0404;" d="M244.131,213.6c-3.2-0.8-5.6-4-5.6-5.6l0,0c0.8-2.4,4-3.2,8-1.6l16,4.8c3.2,0.8,5.6,4,5.6,5.6l0,0
		c-0.8,2.4-4,3.2-8,1.6L244.131,213.6z"/>
	<path style="fill:#5E0404;" d="M338.531,286.4c0,0,4-4,13.6,3.2c9.6,6.4,17.6-0.8,17.6-0.8s2.4,4.8,7.2,1.6
		c4.8-3.2,7.2,0.8,7.2,0.8l-0.8-5.6h-7.2l3.2-5.6l-4-2.4l-2.4,4.8l-0.8-4.8l-3.2,3.2l2.4,3.2h-2.4l0.8,2.4c0,0-4.8,6.4-13.6,2.4
		c-8.8-4-8-9.6-18.4-6.4l-0.8,3.2L338.531,286.4z"/>
</g>
<path style="fill:#8C1C1C;" d="M272.931,255.2c-4.8-0.8-9.6,2.4-11.2,7.2l-2.4,12c-0.8,4.8,2.4,9.6,7.2,11.2l57.6,12
	c4.8,0.8,10.4-2.4,11.2-7.2l2.4-12c0.8-4.8-2.4-10.4-7.2-11.2L272.931,255.2z"/>
<path style="fill:#5E0404;" d="M336.131,290.4l2.4-12c0.8-4.8-2.4-10.4-7.2-11.2l-57.6-12c-4.8-0.8-9.6,2.4-11.2,7.2l-2.4,12"/>
<path style="fill:#FF7C10;" d="M339.331,276c-0.8,0-1.6,0-1.6,0.8l-3.2,13.6c0,0.8,0,1.6,0.8,1.6l0,0c0.8,0,1.6,0,1.6-0.8l2.4-13.6
	C340.931,276.8,340.131,276.8,339.331,276L339.331,276z"/>
<rect x="322.521" y="265.752" transform="matrix(0.9791 0.2036 -0.2036 0.9791 64.0943 -60.3398)" style="fill:#E51717;" width="5.6" height="31.201"/>
<polyline style="fill:#D10D0D;" points="325.731,266.4 331.331,267.2 324.931,297.6 "/>
<rect x="273.76" y="259.992" transform="matrix(-0.979 -0.2038 0.2038 -0.979 531.5214 605.92)" style="fill:#E51717;" width="46.399" height="31.2"/>
<polyline style="fill:#D10D0D;" points="277.731,256 322.531,265.6 316.131,296 "/>
<g>
	<circle style="fill:#5E0404;" cx="315.331" cy="280" r="1.6"/>
	<circle style="fill:#5E0404;" cx="312.131" cy="279.2" r="1.6"/>
	<circle style="fill:#5E0404;" cx="284.131" cy="272.8" r="1.6"/>
	<circle style="fill:#5E0404;" cx="280.931" cy="272" r="1.6"/>
</g>
<polygon style="fill:#FF7C10;" points="289.731,277.6 292.931,283.2 300.131,284.8 304.931,280.8 306.531,274.4 303.331,268.8 
	296.131,267.2 291.331,271.2 "/>
<g>
	<polygon style="fill:#5E0404;" points="292.931,276.8 295.331,280.8 299.331,281.6 302.531,279.2 303.331,275.2 300.931,271.2 
		296.931,270.4 293.731,272.8 	"/>
	<path style="fill:#5E0404;" d="M250.531,263.2c-2.4-0.8-4,0-4.8,1.6l0,0c0,1.6,1.6,3.2,4,3.2l10.4,2.4c2.4,0.8,4,0,4.8-1.6l0,0
		c0-1.6-1.6-3.2-4-3.2L250.531,263.2z"/>
	<path style="fill:#5E0404;" d="M384.931,352c0,0,3.2,8.8,21.6,6.4s24,14.4,24,14.4s6.4-5.6,11.2,2.4c4.8,8,11.2,4,11.2,4l-4.8,7.2
		l-9.6-5.6l0.8,10.4h-7.2v-8.8l-6.4,6.4l-2.4-7.2l6.4-2.4l-3.2-2.4l2.4-3.2c0,0-1.6-12.8-16.8-13.6c-15.2-0.8-17.6,7.2-31.2-4.8
		l1.6-5.6L384.931,352z"/>
</g>
<path style="fill:#8C1C1C;" d="M269.731,345.6c-8-2.4-12-10.4-10.4-18.4l5.6-18.4c2.4-8,10.4-12,18.4-9.6l90.4,27.2
	c8,2.4,12,10.4,9.6,18.4l-5.6,18.4c-2.4,8-10.4,12-18.4,9.6L269.731,345.6z"/>
<path style="fill:#5E0404;" d="M384.131,344.8l-5.6,18.4c-2.4,8-10.4,12-18.4,9.6l-90.4-27.2c-8-2.4-12-10.4-10.4-18.4l5.6-18.4"/>
<path style="fill:#FF7C10;" d="M379.331,367.2c-0.8,0-1.6-1.6-1.6-2.4l6.4-20.8c0-0.8,1.6-1.6,2.4-1.6l0,0c0.8,0,1.6,1.6,1.6,2.4
	l-6.4,20.8C381.731,366.4,380.131,367.2,379.331,367.2L379.331,367.2z"/>
<rect x="359.726" y="323.261" transform="matrix(0.9573 0.2892 -0.2892 0.9573 116.198 -90.3143)" style="fill:#E51717;" width="8" height="49.601"/>
<polyline style="fill:#D10D0D;" points="352.131,370.4 360.131,372.8 374.531,325.6 "/>
<rect x="281.657" y="310.452" transform="matrix(-0.9572 -0.2896 0.2896 -0.9572 526.9716 748.4784)" style="fill:#E51717;" width="74.404" height="49.602"/>
<polyline style="fill:#D10D0D;" points="276.131,348 347.331,369.6 361.731,322.4 "/>
<g>
	<circle style="fill:#5E0404;" cx="348.131" cy="344" r="1.6"/>
	<circle style="fill:#5E0404;" cx="341.731" cy="342.4" r="1.6"/>
	<circle style="fill:#5E0404;" cx="299.331" cy="328.8" r="1.6"/>
	<circle style="fill:#5E0404;" cx="292.931" cy="327.2" r="1.6"/>
</g>
<polygon style="fill:#FF7C10;" points="309.731,326.4 319.331,321.6 328.931,324.8 334.531,334.4 331.331,344 321.731,349.6 
	312.131,346.4 306.531,336.8 "/>
<g>
	<polygon style="fill:#5E0404;" points="313.731,329.6 319.331,326.4 326.531,328.8 329.731,334.4 327.331,340.8 321.731,344 
		314.531,342.4 311.331,336 	"/>
	<path style="fill:#5E0404;" d="M244.131,316.8c-3.2-0.8-5.6-4-5.6-5.6l0,0c0.8-2.4,4-3.2,8-1.6l16,4.8c3.2,0.8,5.6,4,5.6,5.6l0,0
		c-0.8,2.4-4,3.2-8,1.6L244.131,316.8z"/>
	<path style="fill:#5E0404;" d="M338.531,389.6c0,0,4-4,13.6,3.2c9.6,6.4,17.6-0.8,17.6-0.8s2.4,4.8,7.2,1.6
		c4.8-3.2,7.2,0.8,7.2,0.8l-0.8-5.6h-7.2l3.2-5.6l-4-2.4l-2.4,4.8l-0.8-4.8l-3.2,3.2l2.4,3.2h-2.4l0.8,2.4c0,0-4.8,6.4-13.6,2.4
		c-8.8-4-8-9.6-18.4-6.4l-0.8,3.2L338.531,389.6z"/>
</g>
<path style="fill:#8C1C1C;" d="M272.931,358.4c-4.8-0.8-9.6,2.4-11.2,7.2l-2.4,12c-0.8,4.8,2.4,9.6,7.2,11.2l57.6,12
	c4.8,0.8,10.4-2.4,11.2-7.2l2.4-12c0.8-4.8-2.4-10.4-7.2-11.2L272.931,358.4z"/>
<path style="fill:#5E0404;" d="M336.131,392.8l2.4-12c0.8-4.8-2.4-10.4-7.2-11.2l-57.6-12c-4.8-0.8-9.6,2.4-11.2,7.2l-2.4,12"/>
<path style="fill:#FF7C10;" d="M339.331,379.2c-0.8,0-1.6,0-1.6,0.8l-3.2,13.6c0,0.8,0,1.6,0.8,1.6l0,0c0.8,0,1.6,0,1.6-0.8
	l2.4-13.6C340.931,380,340.131,380,339.331,379.2L339.331,379.2z"/>
<rect x="322.493" y="368.788" transform="matrix(0.9791 0.2036 -0.2036 0.9791 85.071 -58.176)" style="fill:#E51717;" width="5.6" height="31.201"/>
<polyline style="fill:#D10D0D;" points="325.731,368.8 331.331,370.4 324.931,400.8 "/>
<rect x="273.736" y="363.184" transform="matrix(-0.979 -0.2038 0.2038 -0.979 510.4426 810.1349)" style="fill:#E51717;" width="46.399" height="31.2"/>
<polyline style="fill:#D10D0D;" points="277.731,359.2 322.531,368.8 316.131,398.4 "/>
<g>
	<circle style="fill:#5E0404;" cx="315.331" cy="382.4" r="1.6"/>
	<circle style="fill:#5E0404;" cx="312.131" cy="382.4" r="1.6"/>
	<circle style="fill:#5E0404;" cx="284.131" cy="376" r="1.6"/>
	<circle style="fill:#5E0404;" cx="280.931" cy="375.2" r="1.6"/>
</g>
<polygon style="fill:#FF7C10;" points="289.731,380.8 292.931,386.4 300.131,388 304.931,384 306.531,377.6 303.331,372 
	296.131,370.4 291.331,374.4 "/>
<g>
	<polygon style="fill:#5E0404;" points="292.931,380 295.331,384 299.331,384.8 302.531,382.4 303.331,378.4 300.931,374.4 
		296.931,373.6 293.731,376 	"/>
	<path style="fill:#5E0404;" d="M250.531,366.4c-2.4-0.8-4,0-4.8,1.6l0,0c0,1.6,1.6,3.2,4,3.2l10.4,2.4c2.4,0.8,4,0,4.8-1.6l0,0
		c0-1.6-1.6-3.2-4-3.2L250.531,366.4z"/>
	<path style="fill:#5E0404;" d="M384.931,455.2c0,0,3.2,8.8,21.6,6.4s24,14.4,24,14.4s6.4-5.6,11.2,2.4c4.8,8,11.2,4,11.2,4
		l-4.8,7.2l-9.6-5.6l0.8,10.4h-7.2v-8.8l-6.4,6.4l-2.4-7.2l6.4-2.4l-3.2-2.4l2.4-3.2c0,0-1.6-12.8-16.8-13.6
		c-15.2-0.8-17.6,7.2-31.2-4.8l1.6-5.6L384.931,455.2z"/>
</g>
<path style="fill:#8C1C1C;" d="M269.731,448.8c-8-2.4-12-10.4-10.4-18.4l5.6-18.4c2.4-8,10.4-12,18.4-9.6l90.4,27.2
	c8,2.4,12,10.4,9.6,18.4l-5.6,18.4c-2.4,8-10.4,12-18.4,9.6L269.731,448.8z"/>
<path style="fill:#5E0404;" d="M384.131,448l-5.6,18.4c-2.4,8-10.4,12-18.4,9.6l-90.4-27.2c-8-2.4-12-10.4-10.4-18.4l5.6-18.4"/>
<path style="fill:#FF7C10;" d="M379.331,469.6c-0.8,0-1.6-1.6-1.6-2.4l6.4-20.8c0-0.8,1.6-1.6,2.4-1.6l0,0c0.8,0,1.6,1.6,1.6,2.4
	l-6.4,20.8C381.731,469.6,380.131,470.4,379.331,469.6L379.331,469.6z"/>
<rect x="359.5" y="427.073" transform="matrix(0.9573 0.2892 -0.2892 0.9573 146.21 -85.8132)" style="fill:#E51717;" width="8" height="49.601"/>
<polyline style="fill:#D10D0D;" points="352.131,473.6 360.131,476 374.531,428.8 "/>
<rect x="281.627" y="413.651" transform="matrix(-0.9572 -0.2896 0.2896 -0.9572 497.0265 950.4457)" style="fill:#E51717;" width="74.404" height="49.602"/>
<polyline style="fill:#D10D0D;" points="276.131,451.2 347.331,472.8 361.731,424.8 "/>
<g>
	<circle style="fill:#5E0404;" cx="348.131" cy="447.2" r="1.6"/>
	<circle style="fill:#5E0404;" cx="341.731" cy="444.8" r="1.6"/>
	<circle style="fill:#5E0404;" cx="299.331" cy="432" r="1.6"/>
	<circle style="fill:#5E0404;" cx="292.931" cy="430.4" r="1.6"/>
</g>
<polygon style="fill:#FF7C10;" points="309.731,429.6 319.331,424.8 328.931,428 334.531,437.6 331.331,447.2 321.731,452 
	312.131,449.6 306.531,440 "/>
<g>
	<polygon style="fill:#5E0404;" points="313.731,432.8 319.331,429.6 326.531,432 329.731,437.6 327.331,444 321.731,447.2 
		314.531,445.6 311.331,439.2 	"/>
	<path style="fill:#5E0404;" d="M244.131,420c-3.2-0.8-5.6-4-5.6-5.6l0,0c0.8-2.4,4-3.2,8-1.6l16,4.8c3.2,0.8,5.6,4,5.6,5.6l0,0
		c-0.8,2.4-4,3.2-8,1.6L244.131,420z"/>
	<path style="fill:#5E0404;" d="M338.531,492c0,0,4-4,13.6,3.2c9.6,6.4,17.6-0.8,17.6-0.8s2.4,4.8,7.2,1.6c4.8-3.2,7.2,0.8,7.2,0.8
		l-0.8-5.6h-7.2l3.2-5.6l-4-2.4l-2.4,4.8l-0.8-4.8l-3.2,3.2l2.4,3.2h-2.4l0.8,2.4c0,0-4.8,6.4-13.6,2.4c-8.8-4-8-9.6-18.4-6.4
		l-1.6,4H338.531z"/>
</g>
<path style="fill:#8C1C1C;" d="M272.931,461.6c-4.8-0.8-9.6,2.4-11.2,7.2l-2.4,12c-0.8,4.8,2.4,9.6,7.2,11.2l57.6,12
	c4.8,0.8,10.4-2.4,11.2-7.2l2.4-12c0.8-4.8-2.4-10.4-7.2-11.2L272.931,461.6z"/>
<path style="fill:#5E0404;" d="M336.131,496l2.4-12c0.8-4.8-2.4-10.4-7.2-11.2l-57.6-12c-4.8-0.8-9.6,2.4-11.2,7.2l-2.4,12"/>
<path style="fill:#FF7C10;" d="M339.331,482.4c-0.8,0-1.6,0-1.6,0.8l-3.2,13.6c0,0.8,0,1.6,0.8,1.6l0,0c0.8,0,1.6,0,1.6-0.8
	l2.4-13.6C340.931,483.2,340.131,482.4,339.331,482.4L339.331,482.4z"/>
<rect x="322.536" y="471.745" transform="matrix(0.9791 0.2036 -0.2036 0.9791 106.033 -56.0285)" style="fill:#E51717;" width="5.6" height="31.201"/>
<polyline style="fill:#D10D0D;" points="325.731,472 331.331,473.6 324.931,503.2 "/>
<rect x="273.712" y="466.385" transform="matrix(-0.979 -0.2038 0.2038 -0.979 489.3622 1014.3655)" style="fill:#E51717;" width="46.399" height="31.2"/>
<polyline style="fill:#D10D0D;" points="277.731,462.4 322.531,472 316.131,501.6 "/>
<g>
	<circle style="fill:#5E0404;" cx="315.331" cy="485.6" r="1.6"/>
	<circle style="fill:#5E0404;" cx="312.131" cy="484.8" r="1.6"/>
	<circle style="fill:#5E0404;" cx="284.131" cy="479.2" r="1.6"/>
	<circle style="fill:#5E0404;" cx="280.931" cy="478.4" r="1.6"/>
</g>
<polygon style="fill:#FF7C10;" points="289.731,484 292.931,489.6 300.131,490.4 304.931,487.2 306.531,480.8 303.331,475.2 
	296.131,473.6 291.331,477.6 "/>
<g>
	<polygon style="fill:#5E0404;" points="292.931,483.2 295.331,487.2 299.331,488 302.531,485.6 303.331,481.6 300.931,477.6 
		296.931,476.8 293.731,479.2 	"/>
	<path style="fill:#5E0404;" d="M250.531,469.6c-2.4-0.8-4,0-4.8,1.6l0,0c0,1.6,1.6,3.2,4,3.2l10.4,2.4c2.4,0.8,4,0,4.8-1.6l0,0
		c0-1.6-1.6-3.2-4-3.2L250.531,469.6z"/>
	<path style="fill:#5E0404;" d="M119.331,248.8c0,0-3.2,8.8-21.6,6.4s-24,14.4-24,14.4s-6.4-5.6-11.2,2.4s-11.2,4-11.2,4l4,8
		l9.6-5.6l-0.8,10.4h7.2V280l6.4,6.4l2.4-7.2l-6.4-2.4l3.2-2.4l-0.8-2.4c0,0,1.6-12.8,16.8-13.6c15.2-0.8,17.6,7.2,31.2-4.8
		l-1.6-5.6L119.331,248.8z"/>
</g>
<path style="fill:#8C1C1C;" d="M234.531,242.4c8-2.4,12-10.4,10.4-18.4l-5.6-18.4c-2.4-8-10.4-12-18.4-9.6l-90.4,27.2
	c-8,2.4-12,10.4-9.6,18.4l5.6,18.4c2.4,8,10.4,12,18.4,9.6L234.531,242.4z"/>
<path style="fill:#5E0404;" d="M120.131,241.6l5.6,18.4c2.4,8,10.4,12,18.4,9.6l90.4-27.2c8-2.4,12-10.4,10.4-18.4l-5.6-18.4"/>
<path style="fill:#FF7C10;" d="M124.931,264c0.8,0,1.6-1.6,1.6-2.4l-6.4-20.8c0-0.8-1.6-1.6-2.4-1.6l0,0c-0.8,0-1.6,1.6-1.6,2.4
	l6.4,20.8C122.531,263.2,124.131,264,124.931,264L124.931,264z"/>
<rect x="137.053" y="220.857" transform="matrix(-0.9573 0.2892 -0.2892 -0.9573 347.1207 440.028)" style="fill:#E51717;" width="8" height="49.601"/>
<polyline style="fill:#D10D0D;" points="152.131,268 144.131,270.4 129.731,223.2 "/>
<rect x="148.322" y="206.908" transform="matrix(0.9572 -0.2896 0.2896 0.9572 -59.1503 63.6532)" style="fill:#E51717;" width="74.404" height="49.602"/>
<polyline style="fill:#D10D0D;" points="228.131,244.8 156.931,266.4 142.531,219.2 "/>
<g>
	<circle style="fill:#5E0404;" cx="156.131" cy="240.8" r="1.6"/>
	<circle style="fill:#5E0404;" cx="162.531" cy="239.2" r="1.6"/>
	<circle style="fill:#5E0404;" cx="204.931" cy="225.6" r="1.6"/>
	<circle style="fill:#5E0404;" cx="211.331" cy="224" r="1.6"/>
</g>
<polygon style="fill:#FF7C10;" points="194.531,224 184.931,218.4 175.331,221.6 169.731,231.2 172.931,240.8 182.531,246.4 
	192.131,243.2 197.731,233.6 "/>
<g>
	<polygon style="fill:#5E0404;" points="190.531,226.4 184.931,223.2 177.731,225.6 174.531,231.2 176.931,238.4 182.531,241.6 
		189.731,239.2 192.931,233.6 	"/>
	<path style="fill:#5E0404;" d="M260.131,213.6c3.2-0.8,5.6-4,5.6-5.6l0,0c-0.8-2.4-4-3.2-8-1.6l-16,4.8c-3.2,0.8-5.6,3.2-5.6,5.6
		l0,0c0.8,2.4,4,3.2,8,1.6L260.131,213.6z"/>
	<path style="fill:#5E0404;" d="M165.731,286.4c0,0-4-4-13.6,3.2c-9.6,6.4-17.6-0.8-17.6-0.8s-2.4,4.8-7.2,1.6
		c-4.8-3.2-7.2,0.8-7.2,0.8l0.8-5.6h7.2l-4-4.8l4-2.4l2.4,4.8l1.6-5.6l3.2,3.2l-2.4,3.2h2.4l-0.8,2.4c0,0,4.8,6.4,13.6,2.4
		s8-9.6,18.4-6.4l0.8,3.2L165.731,286.4z"/>
</g>
<path style="fill:#8C1C1C;" d="M231.331,255.2c4.8-0.8,9.6,2.4,11.2,7.2l2.4,12c0.8,4.8-2.4,9.6-7.2,11.2l-57.6,12
	c-4.8,0.8-10.4-2.4-11.2-7.2l-2.4-12c-0.8-4.8,2.4-10.4,7.2-11.2L231.331,255.2z"/>
<path style="fill:#5E0404;" d="M168.131,290.4l-2.4-12c-0.8-4.8,2.4-10.4,7.2-11.2l57.6-12c4.8-0.8,9.6,2.4,11.2,7.2l2.4,12"/>
<path style="fill:#FF7C10;" d="M164.931,276c0.8,0,1.6,0,1.6,0.8l3.2,13.6c0,0.8,0,1.6-0.8,1.6l0,0c-0.8,0-1.6,0-1.6-0.8l-2.4-13.6
	C163.331,276.8,164.131,276.8,164.931,276L164.931,276z"/>
<rect x="176.204" y="266.412" transform="matrix(-0.9791 0.2036 -0.2036 -0.9791 411.675 521.6749)" style="fill:#E51717;" width="5.6" height="31.201"/>
<polyline style="fill:#D10D0D;" points="178.531,266.4 172.931,267.2 179.331,297.6 "/>
<rect x="183.984" y="260.41" transform="matrix(0.979 -0.2038 0.2038 0.979 -51.9032 48.0175)" style="fill:#E51717;" width="46.399" height="31.2"/>
<polyline style="fill:#D10D0D;" points="226.531,256 181.731,265.6 188.131,296 "/>
<g>
	<circle style="fill:#5E0404;" cx="188.931" cy="280" r="1.6"/>
	<circle style="fill:#5E0404;" cx="192.131" cy="279.2" r="1.6"/>
	<circle style="fill:#5E0404;" cx="220.131" cy="272.8" r="1.6"/>
	<circle style="fill:#5E0404;" cx="223.331" cy="272" r="1.6"/>
</g>
<polygon style="fill:#FF7C10;" points="214.531,277.6 211.331,283.2 204.131,284.8 199.331,280.8 197.731,274.4 200.931,268.8 
	208.131,267.2 212.931,271.2 "/>
<g>
	<polygon style="fill:#5E0404;" points="211.331,276.8 208.931,280.8 204.931,281.6 201.731,279.2 200.931,275.2 203.331,271.2 
		207.331,270.4 210.531,272.8 	"/>
	<path style="fill:#5E0404;" d="M253.731,263.2c2.4-0.8,4,0,4.8,1.6l0,0c0,1.6-1.6,3.2-4,3.2l-10.4,2.4c-2.4,0.8-4,0-4.8-1.6l0,0
		c0-1.6,1.6-3.2,4-3.2L253.731,263.2z"/>
	<path style="fill:#5E0404;" d="M119.331,352c0,0-3.2,8.8-21.6,6.4s-24,14.4-24,14.4s-6.4-5.6-11.2,2.4s-11.2,4-11.2,4l4.8,7.2
		l9.6-5.6l-0.8,10.4h7.2v-8.8l6.4,6.4l2.4-7.2l-6.4-2.4l3.2-2.4l-1.6-1.6c0,0,1.6-12.8,16.8-13.6c15.2-0.8,17.6,7.2,31.2-4.8
		l-1.6-5.6L119.331,352z"/>
</g>
<path style="fill:#8C1C1C;" d="M234.531,345.6c8-2.4,12-10.4,10.4-18.4l-5.6-18.4c-2.4-8-10.4-12-18.4-9.6l-90.4,27.2
	c-8,2.4-12,10.4-9.6,18.4l5.6,18.4c2.4,8,10.4,12,18.4,9.6L234.531,345.6z"/>
<path style="fill:#5E0404;" d="M120.131,344.8l5.6,18.4c2.4,8,10.4,12,18.4,9.6l90.4-27.2c8-2.4,12-10.4,10.4-18.4l-5.6-18.4"/>
<path style="fill:#FF7C10;" d="M124.931,367.2c0.8,0,1.6-1.6,1.6-2.4l-6.4-20.8c0-0.8-1.6-1.6-2.4-1.6l0,0c-0.8,0-1.6,1.6-1.6,2.4
	l6.4,20.8C122.531,366.4,124.131,367.2,124.931,367.2L124.931,367.2z"/>
<rect x="137.09" y="324.059" transform="matrix(-0.9573 0.2892 -0.2892 -0.9573 377.0389 642.0102)" style="fill:#E51717;" width="8" height="49.601"/>
<polyline style="fill:#D10D0D;" points="152.131,370.4 144.131,372.8 129.731,325.6 "/>
<rect x="148.315" y="309.949" transform="matrix(0.9572 -0.2896 0.2896 0.9572 -88.9898 68.0663)" style="fill:#E51717;" width="74.404" height="49.602"/>
<polyline style="fill:#D10D0D;" points="228.131,348 156.931,369.6 142.531,322.4 "/>
<g>
	<circle style="fill:#5E0404;" cx="156.131" cy="344" r="1.6"/>
	<circle style="fill:#5E0404;" cx="162.531" cy="342.4" r="1.6"/>
	<circle style="fill:#5E0404;" cx="204.931" cy="328.8" r="1.6"/>
	<circle style="fill:#5E0404;" cx="211.331" cy="327.2" r="1.6"/>
</g>
<polygon style="fill:#FF7C10;" points="194.531,326.4 184.931,321.6 175.331,324.8 169.731,334.4 172.931,344 182.531,349.6 
	192.131,346.4 197.731,336.8 "/>
<g>
	<polygon style="fill:#5E0404;" points="190.531,329.6 184.931,326.4 177.731,328.8 174.531,334.4 176.931,340.8 182.531,344 
		189.731,342.4 192.931,336 	"/>
	<path style="fill:#5E0404;" d="M260.131,316.8c3.2-0.8,5.6-4,5.6-5.6l0,0c-0.8-2.4-4-3.2-8-1.6l-16,4.8c-3.2,0.8-5.6,4-5.6,5.6l0,0
		c0.8,2.4,4,3.2,8,1.6L260.131,316.8z"/>
	<path style="fill:#5E0404;" d="M165.731,389.6c0,0-4-4-13.6,3.2c-9.6,6.4-17.6-0.8-17.6-0.8s-2.4,4.8-7.2,1.6
		c-4.8-3.2-7.2,0.8-7.2,0.8l0.8-5.6h7.2l-4-4.8l4-2.4l2.4,4.8l1.6-5.6l3.2,3.2l-2.4,3.2h2.4l-0.8,2.4c0,0,4.8,6.4,13.6,2.4
		s8-9.6,18.4-6.4l0.8,3.2L165.731,389.6z"/>
</g>
<path style="fill:#8C1C1C;" d="M231.331,358.4c4.8-0.8,9.6,2.4,11.2,7.2l2.4,12c0.8,4.8-2.4,9.6-7.2,11.2l-57.6,12
	c-4.8,0.8-10.4-2.4-11.2-7.2l-2.4-12c-0.8-4.8,2.4-10.4,7.2-11.2L231.331,358.4z"/>
<path style="fill:#5E0404;" d="M168.131,392.8l-2.4-12c-0.8-4.8,2.4-10.4,7.2-11.2l57.6-12c4.8-0.8,9.6,2.4,11.2,7.2l2.4,12"/>
<path style="fill:#FF7C10;" d="M164.931,379.2c0.8,0,1.6,0,1.6,0.8l3.2,13.6c0,0.8,0,1.6-0.8,1.6l0,0c-0.8,0-1.6,0-1.6-0.8
	l-2.4-13.6C163.331,380,164.131,380,164.931,379.2L164.931,379.2z"/>
<rect x="176.224" y="369.615" transform="matrix(-0.9791 0.2036 -0.2036 -0.9791 432.7249 725.9157)" style="fill:#E51717;" width="5.6" height="31.201"/>
<polyline style="fill:#D10D0D;" points="178.531,368.8 172.931,370.4 179.331,400.8 "/>
<rect x="183.992" y="363.402" transform="matrix(0.979 -0.2038 0.2038 0.979 -72.8929 50.1807)" style="fill:#E51717;" width="46.399" height="31.2"/>
<polyline style="fill:#D10D0D;" points="226.531,359.2 181.731,368.8 188.131,398.4 "/>
<g>
	<circle style="fill:#5E0404;" cx="188.931" cy="382.4" r="1.6"/>
	<circle style="fill:#5E0404;" cx="192.131" cy="382.4" r="1.6"/>
	<circle style="fill:#5E0404;" cx="220.131" cy="376" r="1.6"/>
	<circle style="fill:#5E0404;" cx="223.331" cy="375.2" r="1.6"/>
</g>
<polygon style="fill:#FF7C10;" points="214.531,380.8 211.331,386.4 204.131,388 199.331,384 197.731,377.6 200.931,372 
	208.131,370.4 212.931,374.4 "/>
<g>
	<polygon style="fill:#5E0404;" points="211.331,380 208.931,384 204.931,384.8 201.731,382.4 200.931,378.4 203.331,374.4 
		207.331,373.6 210.531,376 	"/>
	<path style="fill:#5E0404;" d="M253.731,366.4c2.4-0.8,4,0,4.8,1.6l0,0c0,1.6-1.6,3.2-4,3.2l-10.4,2.4c-2.4,0.8-4,0-4.8-1.6l0,0
		c0-1.6,1.6-3.2,4-3.2L253.731,366.4z"/>
	<path style="fill:#5E0404;" d="M119.331,455.2c0,0-3.2,8.8-21.6,6.4s-24,14.4-24,14.4s-6.4-5.6-11.2,2.4s-11.2,4-11.2,4l4.8,7.2
		l9.6-5.6l-0.8,10.4h7.2v-8.8l6.4,6.4l2.4-7.2l-5.6-0.8l3.2-2.4l-2.4-3.2c0,0,1.6-12.8,16.8-13.6c15.2-0.8,17.6,7.2,31.2-4.8
		l-1.6-5.6L119.331,455.2z"/>
</g>
<path style="fill:#8C1C1C;" d="M234.531,448.8c8-2.4,12-10.4,10.4-18.4l-5.6-18.4c-2.4-8-10.4-12-18.4-9.6l-90.4,27.2
	c-8,2.4-12,10.4-9.6,18.4l5.6,18.4c2.4,8,10.4,12,18.4,9.6L234.531,448.8z"/>
<path style="fill:#5E0404;" d="M120.131,448l5.6,18.4c2.4,8,10.4,12,18.4,9.6l90.4-27.2c8-2.4,12-10.4,10.4-18.4l-5.6-18.4"/>
<path style="fill:#FF7C10;" d="M124.931,469.6c0.8,0,1.6-1.6,1.6-2.4l-6.4-20.8c0-0.8-1.6-1.6-2.4-1.6l0,0c-0.8,0-1.6,1.6-1.6,2.4
	l6.4,20.8C122.531,469.6,124.131,470.4,124.931,469.6L124.931,469.6z"/>
<rect x="136.888" y="426.486" transform="matrix(-0.9573 0.2892 -0.2892 -0.9573 406.2648 842.5471)" style="fill:#E51717;" width="8" height="49.601"/>
<polyline style="fill:#D10D0D;" points="152.131,473.6 144.131,476 129.731,428.8 "/>
<rect x="148.268" y="412.926" transform="matrix(0.9572 -0.2896 0.2896 0.9572 -118.8124 72.4651)" style="fill:#E51717;" width="74.404" height="49.602"/>
<polyline style="fill:#D10D0D;" points="228.131,451.2 156.931,472.8 142.531,424.8 "/>
<g>
	<circle style="fill:#5E0404;" cx="156.131" cy="447.2" r="1.6"/>
	<circle style="fill:#5E0404;" cx="162.531" cy="444.8" r="1.6"/>
	<circle style="fill:#5E0404;" cx="204.931" cy="432" r="1.6"/>
	<circle style="fill:#5E0404;" cx="211.331" cy="430.4" r="1.6"/>
</g>
<polygon style="fill:#FF7C10;" points="194.531,429.6 184.931,424.8 175.331,428 169.731,437.6 172.931,447.2 182.531,452 
	192.131,449.6 197.731,440 "/>
<g>
	<polygon style="fill:#5E0404;" points="190.531,432.8 184.931,429.6 177.731,432 174.531,437.6 176.931,444 182.531,447.2 
		189.731,445.6 192.931,439.2 	"/>
	<path style="fill:#5E0404;" d="M260.131,420c3.2-0.8,5.6-4,5.6-5.6l0,0c-0.8-2.4-4-3.2-8-1.6l-16,4.8c-3.2,0.8-5.6,4-5.6,5.6l0,0
		c0.8,2.4,4,3.2,8,1.6L260.131,420z"/>
	<path style="fill:#5E0404;" d="M165.731,492c0,0-4-4-13.6,3.2c-9.6,6.4-17.6-0.8-17.6-0.8s-2.4,5.6-7.2,2.4
		c-4.8-3.2-7.2,0.8-7.2,0.8l0.8-5.6h7.2l-4-4.8l4-2.4l2.4,4.8l1.6-5.6l3.2,3.2l-2.4,3.2h2.4l-0.8,2.4c0,0,4.8,6.4,13.6,2.4
		s8-9.6,18.4-6.4l0.8,3.2L165.731,492z"/>
</g>
<path style="fill:#8C1C1C;" d="M231.331,461.6c4.8-0.8,9.6,2.4,11.2,7.2l2.4,12c0.8,4.8-2.4,9.6-7.2,11.2l-57.6,12
	c-4.8,0.8-10.4-2.4-11.2-7.2l-3.2-12.8c-0.8-4.8,2.4-10.4,7.2-11.2L231.331,461.6z"/>
<path style="fill:#5E0404;" d="M168.131,496l-2.4-12c-0.8-4.8,2.4-10.4,7.2-11.2l57.6-12c4.8-0.8,9.6,2.4,11.2,7.2l2.4,12"/>
<path style="fill:#FF7C10;" d="M164.931,482.4c0.8,0,1.6,0,1.6,0.8l3.2,13.6c0,0.8,0,1.6-0.8,1.6l0,0c-0.8,0-1.6,0-1.6-0.8l-4-13.6
	C163.331,483.2,164.131,482.4,164.931,482.4L164.931,482.4z"/>
<rect x="176.243" y="472.818" transform="matrix(-0.9791 0.2036 -0.2036 -0.9791 453.7747 930.1564)" style="fill:#E51717;" width="5.6" height="31.201"/>
<polyline style="fill:#D10D0D;" points="178.531,472 172.931,473.6 179.331,503.2 "/>
<rect x="184" y="466.449" transform="matrix(0.979 -0.2038 0.2038 0.979 -93.894 52.3451)" style="fill:#E51717;" width="46.399" height="31.2"/>
<polyline style="fill:#D10D0D;" points="226.531,462.4 181.731,472 188.131,501.6 "/>
<g>
	<circle style="fill:#5E0404;" cx="188.931" cy="485.6" r="1.6"/>
	<circle style="fill:#5E0404;" cx="192.131" cy="484.8" r="1.6"/>
	<circle style="fill:#5E0404;" cx="220.131" cy="479.2" r="1.6"/>
	<circle style="fill:#5E0404;" cx="223.331" cy="478.4" r="1.6"/>
</g>
<polygon style="fill:#FF7C10;" points="214.531,484 211.331,489.6 204.131,490.4 199.331,487.2 197.731,480.8 200.931,475.2 
	208.131,473.6 212.931,477.6 "/>
<g>
	<polygon style="fill:#5E0404;" points="211.331,483.2 208.931,487.2 204.931,488 201.731,485.6 200.931,481.6 203.331,477.6 
		207.331,476.8 210.531,479.2 	"/>
	<path style="fill:#5E0404;" d="M253.731,469.6c2.4-0.8,4,0,4.8,1.6l0,0c0,1.6-1.6,3.2-4,3.2l-10.4,2.4c-2.4,0.8-4,0-4.8-1.6l0,0
		c0-1.6,1.6-3.2,4-3.2L253.731,469.6z"/>
</g>
<g>
</g>
<g>
</g>
<g>
</g>
<g>
</g>
<g>
</g>
<g>
</g>
<g>
</g>
<g>
</g>
<g>
</g>
<g>
</g>
<g>
</g>
<g>
</g>
<g>
</g>
<g>
</g>
<g>
</g>
</svg>
