<?xml version="1.0" encoding="iso-8859-1"?>
<!-- Generator: Adobe Illustrator 18.0.0, SVG Export Plug-In . SVG Version: 6.00 Build 0)  -->
<!DOCTYPE svg PUBLIC "-//W3C//DTD SVG 1.1//EN" "http://www.w3.org/Graphics/SVG/1.1/DTD/svg11.dtd">
<svg xmlns="http://www.w3.org/2000/svg" xmlns:xlink="http://www.w3.org/1999/xlink" version="1.1" id="Capa_1" x="0px" y="0px" viewBox="0 0 29.599 29.599" style="enable-background:new 0 0 29.599 29.599;" xml:space="preserve" width="512px" height="512px">
<path d="M0.381,9.959c0,2.426,2.952,4.327,6.721,4.327c0.797,0,1.553-0.089,2.257-0.246c-0.001,0.033-0.01,0.063-0.01,0.096  c0,1.476,1.201,2.677,2.677,2.677c0.974,0,1.82-0.528,2.288-1.308v3.345c-1.13,0.225-1.982,1.222-1.982,2.418v7.448  c0,0.489,0.396,0.884,0.884,0.884h3.164c0.488,0,0.884-0.396,0.884-0.884v-7.448c0-1.196-0.851-2.192-1.981-2.418v-3.345  c0.465,0.791,1.316,1.308,2.299,1.308c1.477,0,2.677-1.201,2.677-2.677c0-0.032-0.009-0.061-0.009-0.093  c0.7,0.156,1.453,0.244,2.245,0.244c3.769,0,6.721-1.901,6.721-4.327c0-2.426-2.952-4.326-6.721-4.326  c-0.792,0-1.545,0.088-2.245,0.244c0.001-0.032,0.009-0.062,0.009-0.094c0-1.476-1.201-2.677-2.677-2.677  c-0.368,0-0.719,0.075-1.039,0.21c0.002-0.061,0.01-0.119,0.01-0.181C16.555,1.347,15.8,0,14.799,0  c-1.001,0-1.755,1.347-1.755,3.134c0,0.062,0.008,0.118,0.01,0.178c-0.317-0.132-0.663-0.207-1.027-0.207  c-1.477,0-2.677,1.201-2.677,2.677c0,0.033,0.009,0.063,0.01,0.096C8.656,5.722,7.899,5.633,7.102,5.633  C3.333,5.633,0.381,7.533,0.381,9.959z M20.556,8.269c1.911,0,3.243,0.891,3.243,1.69c0,0.8-1.332,1.691-3.243,1.691  c-0.454,0-0.873-0.053-1.251-0.141l0.757-0.757c0.21-0.21,0.329-0.495,0.329-0.792c0-0.297-0.118-0.582-0.328-0.792L19.305,8.41  C19.683,8.322,20.102,8.269,20.556,8.269z M9.043,11.65c-1.911,0-3.243-0.891-3.243-1.691c0-0.799,1.332-1.69,3.243-1.69  c0.458,0,0.88,0.054,1.26,0.142L9.547,9.168c-0.437,0.437-0.437,1.146,0,1.583l0.756,0.756C9.923,11.596,9.501,11.65,9.043,11.65z   M13.24,4.585c0.066,0.236,0.147,0.452,0.243,0.646l-1.636,1.637c-0.438-0.278-0.935-0.516-1.481-0.708  c-0.027-0.122-0.045-0.248-0.045-0.378c0-0.941,0.766-1.706,1.707-1.706C12.501,4.076,12.93,4.271,13.24,4.585z M15.584,3.134  c0,0.39-0.045,0.73-0.114,1.025c-0.078,0.1-0.146,0.207-0.209,0.317c-0.144-0.065-0.298-0.105-0.458-0.105  c-0.16,0-0.313,0.04-0.456,0.104c-0.067-0.118-0.141-0.23-0.225-0.337c-0.065-0.29-0.109-0.624-0.109-1.006  c0-1.342,0.508-2.164,0.785-2.164C15.076,0.97,15.584,1.792,15.584,3.134z M19.247,6.155c-0.549,0.191-1.048,0.431-1.487,0.709  l-1.641-1.64c0.092-0.186,0.17-0.393,0.234-0.617c0.31-0.325,0.746-0.53,1.23-0.53c0.941,0,1.707,0.765,1.707,1.706  C19.291,5.911,19.274,6.035,19.247,6.155z M22.497,12.345c-0.025,0-0.045-0.004-0.069-0.004c1.394-0.429,2.342-1.319,2.342-2.382  c0-1.063-0.948-1.952-2.342-2.382c0.024,0,0.045-0.004,0.069-0.004c2.817,0,4.78,1.257,4.78,2.385  C27.277,11.087,25.313,12.345,22.497,12.345z M16.013,14.8l1.747-1.746c0.44,0.279,0.939,0.518,1.488,0.709  c0.027,0.12,0.044,0.245,0.044,0.372c0,0.941-0.766,1.706-1.707,1.706C16.879,15.841,16.272,15.412,16.013,14.8z M10.365,13.758  c0.546-0.191,1.043-0.43,1.481-0.708l1.75,1.751c-0.26,0.611-0.865,1.04-1.57,1.04c-0.941,0-1.707-0.765-1.707-1.706  C10.32,14.005,10.338,13.88,10.365,13.758z M2.322,9.959c0-1.128,1.964-2.385,4.78-2.385c0.024,0,0.045,0.004,0.069,0.004  C5.777,8.007,4.83,8.896,4.83,9.959c0,1.063,0.948,1.953,2.342,2.382c-0.024,0-0.044,0.004-0.069,0.004  C4.286,12.345,2.322,11.087,2.322,9.959z" fill="#dcc233"/>
<g>
</g>
<g>
</g>
<g>
</g>
<g>
</g>
<g>
</g>
<g>
</g>
<g>
</g>
<g>
</g>
<g>
</g>
<g>
</g>
<g>
</g>
<g>
</g>
<g>
</g>
<g>
</g>
<g>
</g>
</svg>
