<svg xmlns="http://www.w3.org/2000/svg" viewBox="0 0 297 297" width="512" height="512"><path d="M244.356 59.391c-15.515-10.666-34.048-18.438-54.224-22.934V9.683c0-5.348-4.335-9.683-9.682-9.683h-63.902c-5.347 0-9.682 4.335-9.682 9.683v26.774C86.69 40.953 68.157 48.726 52.642 59.391c-26.846 18.455-41.63 43.354-41.63 70.108 0 26.754 14.784 51.652 41.63 70.108 15.515 10.665 34.048 18.438 54.224 22.934v26.774c0 5.347 4.335 9.683 9.682 9.683h7.077a25.563 25.563 0 0 0-.783 6.293v22.027c0 5.347 4.335 9.682 9.682 9.682s9.683-4.335 9.683-9.682v-22.027a6.3 6.3 0 0 1 6.293-6.293 6.3 6.3 0 0 1 6.293 6.293v22.027c0 5.347 4.336 9.682 9.683 9.682s9.682-4.335 9.682-9.682v-22.027c0-2.171-.272-4.278-.783-6.293h7.077c5.347 0 9.682-4.336 9.682-9.683v-26.774c20.176-4.496 38.709-12.268 54.224-22.934 26.846-18.456 41.63-43.355 41.63-70.108-.002-26.755-14.786-51.653-41.632-70.108zm-125.296-.84c-8.062 18.686-12.192 44.9-12.192 70.948 0 26.047 4.131 52.262 12.192 70.948-24.037-12.424-40.755-39.545-40.755-70.948 0-31.404 16.717-58.525 40.755-70.948zm7.171 70.948c0-51.583 15.609-78.184 22.269-78.184 6.659 0 22.269 26.601 22.269 78.184s-15.609 78.184-22.269 78.184c-6.659 0-22.269-26.601-22.269-78.184zm51.709 70.948c8.062-18.687 12.192-44.901 12.192-70.948 0-26.048-4.131-52.262-12.192-70.948 24.037 12.423 40.755 39.544 40.755 70.948 0 31.403-16.718 58.524-40.755 70.948zM126.231 31.951V19.364h44.537v12.587h-44.537zm-95.853 97.548c0-20.185 11.804-39.417 33.236-54.152 5.379-3.698 11.201-6.986 17.371-9.87-13.722 17.145-22.045 39.544-22.045 64.022 0 24.478 8.322 46.877 22.045 64.023-6.17-2.884-11.992-6.173-17.371-9.871-21.432-14.735-33.236-33.967-33.236-54.152zm140.391 97.548v12.586h-44.537v-12.586h44.537zm62.617-43.397c-5.379 3.698-11.201 6.987-17.371 9.871 13.723-17.145 22.045-39.545 22.045-64.023 0-24.477-8.322-46.877-22.045-64.022 6.17 2.884 11.992 6.172 17.371 9.87 21.433 14.735 33.236 33.967 33.236 54.152 0 20.186-11.804 39.418-33.236 54.152z" fill="#871c29"/></svg>