<svg xmlns="http://www.w3.org/2000/svg" viewBox="0 0 492 492"><ellipse cx="246.4" cy="433.2" rx="177.6" ry="20" fill="#c9c9c9"/><circle cx="246.4" cy="251.6" r="176" fill="#d10d0d"/><path d="M246.4 75.6c97.6 0 176 78.4 176 176 0 96.8-78.4 176-176 176" fill="#af1e1e"/><path d="M492 208.4c0 43.2-29.6 233.6-245.6 233.6S.8 251.6.8 208.4s110.4-7.2 245.6-7.2c136 0 245.6-36 245.6 7.2z" fill="#f49e2c"/><path d="M15.2 208.4c0-14.4 12.8-20 35.2-20.8-31.2-.8-50.4 3.2-50.4 20.8C.8 251.6 30.4 442 246.4 442h7.2C44.8 437.2 15.2 250.8 15.2 208.4z" fill="#f9b66b"/><path d="M246.4 321.2c136 0 245.6-69.6 245.6-112.8s-109.6-7.2-245.6-7.2S.8 166 .8 208.4s109.6 112.8 245.6 112.8z" fill="#e58720"/><path d="M492 208.4c0 43.2-110.4 88-245.6 88-136 0-245.6-44.8-245.6-88s109.6-7.2 245.6-7.2 245.6-36 245.6 7.2z" fill="#f7da2f"/><path d="M492 208.4c0 43.2-110.4 88-245.6 88-136 0-245.6-44.8-245.6-88s96 6.4 232 6.4S492 165.2 492 208.4z" fill="#ffc50b"/><path d="M141.6 234.8l104.8 61.6c136 0 245.6-44.8 245.6-88s-109.6-7.2-245.6-7.2l-104.8 33.6" fill="#ffb40d"/><path d="M492 208.4c0-43.2-110.4-7.2-245.6-7.2l-104.8 34.4" fill="#efa30a"/><g fill="#ffc50b"><circle cx="188.8" cy="322" r="6.4"/><circle cx="227.2" cy="322" r="6.4"/><circle cx="265.6" cy="322" r="6.4"/><circle cx="304" cy="322" r="6.4"/></g><path d="M356.8 221.2c0 23.2-49.6 41.6-110.4 41.6S136 244.4 136 221.2 185.6 150 246.4 150s110.4 48.8 110.4 71.2z" fill="#ffb40d"/><path d="M246.4 262.8c-60.8 0-110.4-18.4-110.4-41.6S185.6 150 246.4 150" fill="#ffc50b"/><g fill="#f7da2f"><ellipse transform="scale(-1) rotate(70.762 239.249 -297.49)" cx="211.277" cy="169.914" rx="8" ry="29.601"/><circle cx="173.6" cy="188.4" r="4"/><circle cx="160.8" cy="198" r="2.4"/><ellipse transform="rotate(-85.561 31.966 200.413)" cx="31.966" cy="200.413" rx="4.8" ry="20"/></g><g fill="#5e0404"><path d="M254.4 410c0 4-4 7.2-8 7.2s-8-3.2-8-7.2v-57.6c0-4 4-7.2 8-7.2s8 3.2 8 7.2V410z"/><path d="M217.6 390c-4 0-7.2-4-7.2-8s3.2-8 7.2-8h57.6c4 0 7.2 4 7.2 8s-3.2 8-7.2 8h-57.6z"/><circle cx="218.4" cy="352.4" r="7.2"/><path d="M281.6 352.4c0 4-3.2 7.2-7.2 7.2s-7.2-3.2-7.2-7.2 3.2-7.2 7.2-7.2 7.2 3.2 7.2 7.2z"/><circle cx="218.4" cy="410" r="7.2"/><path d="M281.6 410c0 4-3.2 7.2-7.2 7.2s-7.2-3.2-7.2-7.2 3.2-7.2 7.2-7.2 7.2 3.2 7.2 7.2z"/></g><g fill="#ffc50b"><path d="M438.4 74.8l-8-24.8-8 24.8 8-2.4zM438.4 90.8l-8 2.4-8-2.4 8 24.8zM422.4 74.8l-24.8 8 24.8 8-2.4-8zM438.4 90.8l24.8-8-24.8-8 2.4 8zM36.8 124.4L32 107.6l-5.6 16.8 5.6-1.6zM36.8 134.8l-4.8 1.6-5.6-1.6 5.6 16.8zM26.4 124.4l-16.8 4.8 16.8 5.6-1.6-5.6zM36.8 134.8l16.8-5.6-16.8-4.8 1.6 4.8zM209.6 113.2l8-15.2-15.2 8 4.8 2.4zM202.4 121.2l-4.8-2.4-3.2-5.6-8 16zM202.4 106l-16-8 8 15.2 3.2-4.8z"/><path d="M202.4 121.2l15.2 8-8-16-2.4 5.6zM103.2 60.4l11.2-21.6L92 50l7.2 4zM92 71.6l-6.4-4-4-7.2-11.2 22.4zM92 50L70.4 38.8l11.2 21.6 4-6.4zM92 71.6l22.4 11.2-11.2-22.4-4 7.2z"/></g></svg>