<svg xmlns="http://www.w3.org/2000/svg" viewBox="0 0 504.263 504.263"><path d="M256.131 487.2c0 6.4-1.6 12-4 12s-4-5.6-4-12V106.4c0-6.4 1.6-12 4-12s4 5.6 4 12v380.8z" fill="#5e0404"/><path fill="#d10d0d" d="M213.731 184l-53.6-53.6v-76l53.6-54.4h76.8l53.6 54.4v76l-53.6 53.6z"/><path fill="#8c0000" d="M290.531 0l53.6 54.4v76l-53.6 53.6h-76.8l-53.6-53.6"/><path fill="#ffc50b" d="M230.531 144l-30.4-30.4V70.4l30.4-30.4h43.2l30.4 30.4v43.2l-30.4 30.4z"/><path fill="#ff7c10" d="M273.731 40l30.4 30.4v43.2l-30.4 30.4h-43.2l-30.4-30.4"/><g fill="#8c0000"><circle cx="251.331" cy="76.8" r="5.6"/><path d="M252.131 60c-17.6 0-32 14.4-32 32s14.4 32 32 32 32-14.4 32-32-14.4-32-32-32zm-.8 54.4c-3.2 0-5.6-2.4-5.6-5.6s2.4-5.6 5.6-5.6c3.2 0 5.6 2.4 5.6 5.6s-2.4 5.6-5.6 5.6zm.8-22.4c-7.2 2.4-14.4 4.8-14.4 14.4 0 8 6.4 14.4 14.4 14.4-16 0-28.8-12.8-28.8-28.8s12.8-28.8 28.8-28.8c8 0 14.4 6.4 14.4 14.4 0 10.4-7.2 12-14.4 14.4zM268.931 12c0 1.6-.8 2.4-2.4 2.4h-28.8c-1.6 0-2.4-.8-2.4-2.4 0-1.6.8-2.4 2.4-2.4h28.8c1.6 0 2.4 1.6 2.4 2.4zM268.931 20c0 1.6-.8 2.4-2.4 2.4h-28.8c-1.6 0-2.4-.8-2.4-2.4 0-1.6.8-2.4 2.4-2.4h28.8c1.6 0 2.4.8 2.4 2.4zM268.931 28c0 1.6-.8 2.4-2.4 2.4h-28.8c-1.6 0-2.4-.8-2.4-2.4 0-1.6.8-2.4 2.4-2.4h28.8c1.6 0 2.4.8 2.4 2.4z"/></g><g fill="#d10d0d"><path d="M268.931 154.4c0 1.6-.8 2.4-2.4 2.4h-28.8c-1.6 0-2.4-.8-2.4-2.4 0-1.6.8-2.4 2.4-2.4h28.8c1.6.8 2.4 1.6 2.4 2.4zM268.931 162.4c0 1.6-.8 2.4-2.4 2.4h-28.8c-1.6 0-2.4-.8-2.4-2.4 0-1.6.8-2.4 2.4-2.4h28.8c1.6 0 2.4 1.6 2.4 2.4zM268.931 170.4c0 1.6-.8 2.4-2.4 2.4h-28.8c-1.6 0-2.4-.8-2.4-2.4 0-1.6.8-2.4 2.4-2.4h28.8c1.6 0 2.4.8 2.4 2.4z"/></g><g fill="#8c0000"><path d="M208.131 23.2c.8.8.8 2.4 0 3.2l-20.8 20.8c-.8.8-2.4.8-3.2 0-.8-.8-.8-2.4 0-3.2l20.8-20.8c.8-.8 2.4-.8 3.2 0zM213.731 28.8c.8.8.8 2.4 0 3.2l-20.8 20.8c-.8.8-2.4.8-3.2 0-.8-.8-.8-2.4 0-3.2l20.8-20.8c.8-.8 2.4-.8 3.2 0zM219.331 34.4c.8.8.8 2.4 0 3.2l-20.8 20.8c-.8.8-2.4.8-3.2 0-.8-.8-.8-2.4 0-3.2l20.8-20.8c.8-.8 2.4-.8 3.2 0z"/></g><g fill="#d10d0d"><path d="M308.931 124c.8.8.8 2.4 0 3.2l-20.8 20.8c-.8.8-2.4.8-3.2 0-.8-.8-.8-2.4 0-3.2l20.8-20.8c.8-.8 2.4-.8 3.2 0zM314.531 129.6c.8.8.8 2.4 0 3.2l-20.8 20.8c-.8.8-2.4.8-3.2 0-.8-.8-.8-2.4 0-3.2l20.8-20.8c.8-.8 2.4-.8 3.2 0zM320.131 135.2c.8.8.8 2.4 0 3.2l-20.8 20.8c-.8.8-2.4.8-3.2 0-.8-.8-.8-2.4 0-3.2l20.8-20.8c.8-.8 2.4-.8 3.2 0z"/></g><g fill="#8c0000"><path d="M172.931 74.4c1.6 0 2.4.8 2.4 2.4v28.8c0 1.6-.8 2.4-2.4 2.4-1.6 0-2.4-.8-2.4-2.4V76.8c0-1.6 1.6-2.4 2.4-2.4zM180.931 74.4c1.6 0 2.4.8 2.4 2.4v28.8c0 1.6-.8 2.4-2.4 2.4-1.6 0-2.4-.8-2.4-2.4V76.8c0-1.6.8-2.4 2.4-2.4zM188.931 74.4c1.6 0 2.4.8 2.4 2.4v28.8c0 1.6-.8 2.4-2.4 2.4-1.6 0-2.4-.8-2.4-2.4V76.8c0-1.6.8-2.4 2.4-2.4z"/></g><g fill="#d10d0d"><path d="M315.331 74.4c1.6 0 2.4.8 2.4 2.4v28.8c0 1.6-.8 2.4-2.4 2.4-1.6 0-2.4-.8-2.4-2.4V76.8c0-1.6 1.6-2.4 2.4-2.4zM323.331 74.4c1.6 0 2.4.8 2.4 2.4v28.8c0 1.6-.8 2.4-2.4 2.4-1.6 0-2.4-.8-2.4-2.4V76.8c0-1.6 1.6-2.4 2.4-2.4zM331.331 74.4c1.6 0 2.4.8 2.4 2.4v28.8c0 1.6-.8 2.4-2.4 2.4-1.6 0-2.4-.8-2.4-2.4V76.8c0-1.6.8-2.4 2.4-2.4zM184.131 135.2c.8-.8 2.4-.8 3.2 0l20.8 20.8c.8.8.8 2.4 0 3.2-.8.8-2.4.8-3.2 0l-20.8-20.8c-.8-.8-.8-2.4 0-3.2zM189.731 129.6c.8-.8 2.4-.8 3.2 0l20.8 20.8c.8.8.8 2.4 0 3.2-.8.8-2.4.8-3.2 0l-20.8-20.8c-.8-.8-.8-2.4 0-3.2zM195.331 124c.8-.8 2.4-.8 3.2 0l20.8 20.8c.8.8.8 2.4 0 3.2-.8.8-2.4.8-3.2 0l-20.8-20.8c-.8-.8-.8-2.4 0-3.2zM284.931 34.4c.8-.8 2.4-.8 3.2 0l20.8 20.8c.8.8.8 2.4 0 3.2-.8.8-2.4.8-3.2 0l-20.8-20.8c-.8-.8-.8-2.4 0-3.2zM290.531 28.8c.8-.8 2.4-.8 3.2 0l20.8 20.8c.8.8.8 2.4 0 3.2-.8.8-2.4.8-3.2 0l-20.8-20.8c-.8-.8-.8-2.4 0-3.2zM296.131 23.2c.8-.8 2.4-.8 3.2 0l20.8 20.8c.8.8.8 2.4 0 3.2-.8.8-2.4.8-3.2 0l-20.8-20.8c-.8-.8-.8-2.4 0-3.2z"/></g><path d="M384.931 248.8s3.2 8.8 21.6 6.4 24 14.4 24 14.4 6.4-5.6 11.2 2.4c4.8 8 11.2 4 11.2 4l-4 8-9.6-5.6.8 10.4h-7.2V280l-6.4 6.4-2.4-7.2 6.4-2.4-3.2-2.4 2.4-3.2s-1.6-12.8-16.8-13.6c-15.2-.8-17.6 7.2-31.2-4.8l1.6-5.6 1.6 1.6z" fill="#5e0404"/><path d="M269.731 242.4c-8-2.4-12-10.4-10.4-18.4l5.6-18.4c2.4-8 10.4-12 18.4-9.6l90.4 27.2c8 2.4 12 10.4 9.6 18.4l-4.8 18.4c-2.4 8-10.4 12-18.4 9.6l-90.4-27.2z" fill="#8c1c1c"/><path d="M384.131 241.6l-5.6 18.4c-2.4 8-10.4 12-18.4 9.6l-90.4-27.2c-8-2.4-12-10.4-10.4-18.4l5.6-18.4" fill="#5e0404"/><path d="M379.331 264c-.8 0-1.6-1.6-1.6-2.4l6.4-20.8c0-.8 1.6-1.6 2.4-1.6.8 0 1.6 1.6 1.6 2.4l-6.4 20.8c0 .8-1.6 1.6-2.4 1.6z" fill="#ff7c10"/><path fill="#e51717" d="M367.073 220.206l7.658 2.314-14.345 47.483-7.658-2.314z"/><path fill="#d10d0d" d="M352.131 268l8 2.4 14.4-47.2"/><path fill="#e51717" d="M347.305 266.552l-71.22-21.548 14.366-47.479 71.22 21.548z"/><path fill="#d10d0d" d="M276.131 244.8l71.2 21.6 14.4-47.2"/><g fill="#5e0404"><circle cx="348.131" cy="240.8" r="1.6"/><circle cx="341.731" cy="239.2" r="1.6"/><circle cx="299.331" cy="225.6" r="1.6"/><circle cx="292.931" cy="224" r="1.6"/></g><path fill="#ff7c10" d="M309.731 224l9.6-5.6 9.6 3.2 5.6 9.6-3.2 9.6-9.6 5.6-9.6-3.2-5.6-9.6z"/><g fill="#5e0404"><path d="M313.731 226.4l5.6-3.2 7.2 2.4 3.2 5.6-2.4 7.2-5.6 3.2-7.2-2.4-3.2-5.6zM244.131 213.6c-3.2-.8-5.6-4-5.6-5.6.8-2.4 4-3.2 8-1.6l16 4.8c3.2.8 5.6 4 5.6 5.6-.8 2.4-4 3.2-8 1.6l-16-4.8zM338.531 286.4s4-4 13.6 3.2c9.6 6.4 17.6-.8 17.6-.8s2.4 4.8 7.2 1.6c4.8-3.2 7.2.8 7.2.8l-.8-5.6h-7.2l3.2-5.6-4-2.4-2.4 4.8-.8-4.8-3.2 3.2 2.4 3.2h-2.4l.8 2.4s-4.8 6.4-13.6 2.4-8-9.6-18.4-6.4l-.8 3.2 1.6.8z"/></g><path d="M272.931 255.2c-4.8-.8-9.6 2.4-11.2 7.2l-2.4 12c-.8 4.8 2.4 9.6 7.2 11.2l57.6 12c4.8.8 10.4-2.4 11.2-7.2l2.4-12c.8-4.8-2.4-10.4-7.2-11.2l-57.6-12z" fill="#8c1c1c"/><path d="M336.131 290.4l2.4-12c.8-4.8-2.4-10.4-7.2-11.2l-57.6-12c-4.8-.8-9.6 2.4-11.2 7.2l-2.4 12" fill="#5e0404"/><path d="M339.331 276c-.8 0-1.6 0-1.6.8l-3.2 13.6c0 .8 0 1.6.8 1.6s1.6 0 1.6-.8l2.4-13.6c1.6-.8.8-.8 0-1.6z" fill="#ff7c10"/><path fill="#e51717" d="M325.768 265.523l5.482 1.14-6.352 30.55-5.483-1.14z"/><path fill="#d10d0d" d="M325.731 266.4l5.6.8-6.4 30.4"/><path fill="#e51717" d="M316.497 295.596l-45.425-9.457 6.359-30.544 45.424 9.456z"/><path fill="#d10d0d" d="M277.731 256l44.8 9.6-6.4 30.4"/><g fill="#5e0404"><circle cx="315.331" cy="280" r="1.6"/><circle cx="312.131" cy="279.2" r="1.6"/><circle cx="284.131" cy="272.8" r="1.6"/><circle cx="280.931" cy="272" r="1.6"/></g><path fill="#ff7c10" d="M289.731 277.6l3.2 5.6 7.2 1.6 4.8-4 1.6-6.4-3.2-5.6-7.2-1.6-4.8 4z"/><g fill="#5e0404"><path d="M292.931 276.8l2.4 4 4 .8 3.2-2.4.8-4-2.4-4-4-.8-3.2 2.4zM250.531 263.2c-2.4-.8-4 0-4.8 1.6 0 1.6 1.6 3.2 4 3.2l10.4 2.4c2.4.8 4 0 4.8-1.6 0-1.6-1.6-3.2-4-3.2l-10.4-2.4zM384.931 352s3.2 8.8 21.6 6.4 24 14.4 24 14.4 6.4-5.6 11.2 2.4c4.8 8 11.2 4 11.2 4l-4.8 7.2-9.6-5.6.8 10.4h-7.2v-8.8l-6.4 6.4-2.4-7.2 6.4-2.4-3.2-2.4 2.4-3.2s-1.6-12.8-16.8-13.6c-15.2-.8-17.6 7.2-31.2-4.8l1.6-5.6 2.4 2.4z"/></g><path d="M269.731 345.6c-8-2.4-12-10.4-10.4-18.4l5.6-18.4c2.4-8 10.4-12 18.4-9.6l90.4 27.2c8 2.4 12 10.4 9.6 18.4l-5.6 18.4c-2.4 8-10.4 12-18.4 9.6l-89.6-27.2z" fill="#8c1c1c"/><path d="M384.131 344.8l-5.6 18.4c-2.4 8-10.4 12-18.4 9.6l-90.4-27.2c-8-2.4-12-10.4-10.4-18.4l5.6-18.4" fill="#5e0404"/><path d="M379.331 367.2c-.8 0-1.6-1.6-1.6-2.4l6.4-20.8c0-.8 1.6-1.6 2.4-1.6.8 0 1.6 1.6 1.6 2.4l-6.4 20.8c0 .8-1.6 1.6-2.4 1.6z" fill="#ff7c10"/><path fill="#e51717" d="M367.077 323.176l7.658 2.314-14.345 47.483-7.658-2.314z"/><path fill="#d10d0d" d="M352.131 370.4l8 2.4 14.4-47.2"/><path fill="#e51717" d="M347.276 369.746l-71.22-21.548 14.366-47.479 71.22 21.548z"/><path fill="#d10d0d" d="M276.131 348l71.2 21.6 14.4-47.2"/><g fill="#5e0404"><circle cx="348.131" cy="344" r="1.6"/><circle cx="341.731" cy="342.4" r="1.6"/><circle cx="299.331" cy="328.8" r="1.6"/><circle cx="292.931" cy="327.2" r="1.6"/></g><path fill="#ff7c10" d="M309.731 326.4l9.6-4.8 9.6 3.2 5.6 9.6-3.2 9.6-9.6 5.6-9.6-3.2-5.6-9.6z"/><g fill="#5e0404"><path d="M313.731 329.6l5.6-3.2 7.2 2.4 3.2 5.6-2.4 6.4-5.6 3.2-7.2-1.6-3.2-6.4zM244.131 316.8c-3.2-.8-5.6-4-5.6-5.6.8-2.4 4-3.2 8-1.6l16 4.8c3.2.8 5.6 4 5.6 5.6-.8 2.4-4 3.2-8 1.6l-16-4.8zM338.531 389.6s4-4 13.6 3.2c9.6 6.4 17.6-.8 17.6-.8s2.4 4.8 7.2 1.6c4.8-3.2 7.2.8 7.2.8l-.8-5.6h-7.2l3.2-5.6-4-2.4-2.4 4.8-.8-4.8-3.2 3.2 2.4 3.2h-2.4l.8 2.4s-4.8 6.4-13.6 2.4-8-9.6-18.4-6.4l-.8 3.2 1.6.8z"/></g><path d="M272.931 358.4c-4.8-.8-9.6 2.4-11.2 7.2l-2.4 12c-.8 4.8 2.4 9.6 7.2 11.2l57.6 12c4.8.8 10.4-2.4 11.2-7.2l2.4-12c.8-4.8-2.4-10.4-7.2-11.2l-57.6-12z" fill="#8c1c1c"/><path d="M336.131 392.8l2.4-12c.8-4.8-2.4-10.4-7.2-11.2l-57.6-12c-4.8-.8-9.6 2.4-11.2 7.2l-2.4 12" fill="#5e0404"/><path d="M339.331 379.2c-.8 0-1.6 0-1.6.8l-3.2 13.6c0 .8 0 1.6.8 1.6s1.6 0 1.6-.8l2.4-13.6c1.6-.8.8-.8 0-1.6z" fill="#ff7c10"/><path fill="#e51717" d="M325.739 368.564l5.483 1.14-6.353 30.549-5.483-1.14z"/><path fill="#d10d0d" d="M325.731 368.8l5.6 1.6-6.4 30.4"/><path fill="#e51717" d="M316.472 398.79l-45.425-9.456 6.359-30.545 45.425 9.457z"/><path fill="#d10d0d" d="M277.731 359.2l44.8 9.6-6.4 29.6"/><g fill="#5e0404"><circle cx="315.331" cy="382.4" r="1.6"/><circle cx="312.131" cy="382.4" r="1.6"/><circle cx="284.131" cy="376" r="1.6"/><circle cx="280.931" cy="375.2" r="1.6"/></g><path fill="#ff7c10" d="M289.731 380.8l3.2 5.6 7.2 1.6 4.8-4 1.6-6.4-3.2-5.6-7.2-1.6-4.8 4z"/><g fill="#5e0404"><path d="M292.931 380l2.4 4 4 .8 3.2-2.4.8-4-2.4-4-4-.8-3.2 2.4zM250.531 366.4c-2.4-.8-4 0-4.8 1.6 0 1.6 1.6 3.2 4 3.2l10.4 2.4c2.4.8 4 0 4.8-1.6 0-1.6-1.6-3.2-4-3.2l-10.4-2.4zM384.931 455.2s3.2 8.8 21.6 6.4 24 14.4 24 14.4 6.4-5.6 11.2 2.4c4.8 8 11.2 4 11.2 4l-4.8 7.2-9.6-5.6.8 10.4h-7.2v-8.8l-6.4 6.4-2.4-7.2 6.4-2.4-3.2-2.4 2.4-3.2s-1.6-12.8-16.8-13.6c-15.2-.8-17.6 7.2-31.2-4.8l1.6-5.6 2.4 2.4z"/></g><path d="M269.731 448.8c-8-2.4-12-10.4-10.4-18.4l5.6-18.4c2.4-8 10.4-12 18.4-9.6l90.4 27.2c8 2.4 12 10.4 9.6 18.4l-5.6 18.4c-2.4 8-10.4 12-18.4 9.6l-89.6-27.2z" fill="#8c1c1c"/><path d="M384.131 448l-5.6 18.4c-2.4 8-10.4 12-18.4 9.6l-90.4-27.2c-8-2.4-12-10.4-10.4-18.4l5.6-18.4" fill="#5e0404"/><path d="M379.331 469.6c-.8 0-1.6-1.6-1.6-2.4l6.4-20.8c0-.8 1.6-1.6 2.4-1.6.8 0 1.6 1.6 1.6 2.4l-6.4 20.8c0 1.6-1.6 2.4-2.4 1.6z" fill="#ff7c10"/><path fill="#e51717" d="M366.85 426.991l7.658 2.314-14.344 47.483-7.659-2.314z"/><path fill="#d10d0d" d="M352.131 473.6l8 2.4 14.4-47.2"/><path fill="#e51717" d="M347.246 472.94l-71.219-21.548 14.365-47.479 71.22 21.548z"/><path fill="#d10d0d" d="M276.131 451.2l71.2 21.6 14.4-48"/><g fill="#5e0404"><circle cx="348.131" cy="447.2" r="1.6"/><circle cx="341.731" cy="444.8" r="1.6"/><circle cx="299.331" cy="432" r="1.6"/><circle cx="292.931" cy="430.4" r="1.6"/></g><path fill="#ff7c10" d="M309.731 429.6l9.6-4.8 9.6 3.2 5.6 9.6-3.2 9.6-9.6 4.8-9.6-2.4-5.6-9.6z"/><g fill="#5e0404"><path d="M313.731 432.8l5.6-3.2 7.2 2.4 3.2 5.6-2.4 6.4-5.6 3.2-7.2-1.6-3.2-6.4zM244.131 420c-3.2-.8-5.6-4-5.6-5.6.8-2.4 4-3.2 8-1.6l16 4.8c3.2.8 5.6 4 5.6 5.6-.8 2.4-4 3.2-8 1.6l-16-4.8zM338.531 492s4-4 13.6 3.2c9.6 6.4 17.6-.8 17.6-.8s2.4 4.8 7.2 1.6c4.8-3.2 7.2.8 7.2.8l-.8-5.6h-7.2l3.2-5.6-4-2.4-2.4 4.8-.8-4.8-3.2 3.2 2.4 3.2h-2.4l.8 2.4s-4.8 6.4-13.6 2.4-8-9.6-18.4-6.4l-1.6 4h2.4z"/></g><path d="M272.931 461.6c-4.8-.8-9.6 2.4-11.2 7.2l-2.4 12c-.8 4.8 2.4 9.6 7.2 11.2l57.6 12c4.8.8 10.4-2.4 11.2-7.2l2.4-12c.8-4.8-2.4-10.4-7.2-11.2l-57.6-12z" fill="#8c1c1c"/><path d="M336.131 496l2.4-12c.8-4.8-2.4-10.4-7.2-11.2l-57.6-12c-4.8-.8-9.6 2.4-11.2 7.2l-2.4 12" fill="#5e0404"/><path d="M339.331 482.4c-.8 0-1.6 0-1.6.8l-3.2 13.6c0 .8 0 1.6.8 1.6s1.6 0 1.6-.8l2.4-13.6c1.6-.8.8-1.6 0-1.6z" fill="#ff7c10"/><path fill="#e51717" d="M325.78 471.525l5.484 1.14-6.353 30.55-5.483-1.14z"/><path fill="#d10d0d" d="M325.731 472l5.6 1.6-6.4 29.6"/><path fill="#e51717" d="M316.447 501.992l-45.424-9.456 6.358-30.545 45.425 9.456z"/><path fill="#d10d0d" d="M277.731 462.4l44.8 9.6-6.4 29.6"/><g fill="#5e0404"><circle cx="315.331" cy="485.6" r="1.6"/><circle cx="312.131" cy="484.8" r="1.6"/><circle cx="284.131" cy="479.2" r="1.6"/><circle cx="280.931" cy="478.4" r="1.6"/></g><path fill="#ff7c10" d="M289.731 484l3.2 5.6 7.2.8 4.8-3.2 1.6-6.4-3.2-5.6-7.2-1.6-4.8 4z"/><g fill="#5e0404"><path d="M292.931 483.2l2.4 4 4 .8 3.2-2.4.8-4-2.4-4-4-.8-3.2 2.4zM250.531 469.6c-2.4-.8-4 0-4.8 1.6 0 1.6 1.6 3.2 4 3.2l10.4 2.4c2.4.8 4 0 4.8-1.6 0-1.6-1.6-3.2-4-3.2l-10.4-2.4zM119.331 248.8s-3.2 8.8-21.6 6.4-24 14.4-24 14.4-6.4-5.6-11.2 2.4-11.2 4-11.2 4l4 8 9.6-5.6-.8 10.4h7.2V280l6.4 6.4 2.4-7.2-6.4-2.4 3.2-2.4-.8-2.4s1.6-12.8 16.8-13.6c15.2-.8 17.6 7.2 31.2-4.8l-1.6-5.6-3.2.8z"/></g><path d="M234.531 242.4c8-2.4 12-10.4 10.4-18.4l-5.6-18.4c-2.4-8-10.4-12-18.4-9.6l-90.4 27.2c-8 2.4-12 10.4-9.6 18.4l5.6 18.4c2.4 8 10.4 12 18.4 9.6l89.6-27.2z" fill="#8c1c1c"/><path d="M120.131 241.6l5.6 18.4c2.4 8 10.4 12 18.4 9.6l90.4-27.2c8-2.4 12-10.4 10.4-18.4l-5.6-18.4" fill="#5e0404"/><path d="M124.931 264c.8 0 1.6-1.6 1.6-2.4l-6.4-20.8c0-.8-1.6-1.6-2.4-1.6-.8 0-1.6 1.6-1.6 2.4l6.4 20.8c0 .8 1.6 1.6 2.4 1.6z" fill="#ff7c10"/><path fill="#e51717" d="M152.048 268.237l-7.658 2.314-14.345-47.483 7.658-2.314z"/><path fill="#d10d0d" d="M152.131 268l-8 2.4-14.4-47.2"/><path fill="#e51717" d="M142.744 218.751l71.22-21.547 14.364 47.48-71.22 21.547z"/><path fill="#d10d0d" d="M228.131 244.8l-71.2 21.6-14.4-47.2"/><g fill="#5e0404"><circle cx="156.131" cy="240.8" r="1.6"/><circle cx="162.531" cy="239.2" r="1.6"/><circle cx="204.931" cy="225.6" r="1.6"/><circle cx="211.331" cy="224" r="1.6"/></g><path fill="#ff7c10" d="M194.531 224l-9.6-5.6-9.6 3.2-5.6 9.6 3.2 9.6 9.6 5.6 9.6-3.2 5.6-9.6z"/><g fill="#5e0404"><path d="M190.531 226.4l-5.6-3.2-7.2 2.4-3.2 5.6 2.4 7.2 5.6 3.2 7.2-2.4 3.2-5.6zM260.131 213.6c3.2-.8 5.6-4 5.6-5.6-.8-2.4-4-3.2-8-1.6l-16 4.8c-3.2.8-5.6 3.2-5.6 5.6.8 2.4 4 3.2 8 1.6l16-4.8zM165.731 286.4s-4-4-13.6 3.2c-9.6 6.4-17.6-.8-17.6-.8s-2.4 4.8-7.2 1.6c-4.8-3.2-7.2.8-7.2.8l.8-5.6h7.2l-4-4.8 4-2.4 2.4 4.8 1.6-5.6 3.2 3.2-2.4 3.2h2.4l-.8 2.4s4.8 6.4 13.6 2.4 8-9.6 18.4-6.4l.8 3.2-1.6.8z"/></g><path d="M231.331 255.2c4.8-.8 9.6 2.4 11.2 7.2l2.4 12c.8 4.8-2.4 9.6-7.2 11.2l-57.6 12c-4.8.8-10.4-2.4-11.2-7.2l-2.4-12c-.8-4.8 2.4-10.4 7.2-11.2l57.6-12z" fill="#8c1c1c"/><path d="M168.131 290.4l-2.4-12c-.8-4.8 2.4-10.4 7.2-11.2l57.6-12c4.8-.8 9.6 2.4 11.2 7.2l2.4 12" fill="#5e0404"/><path d="M164.931 276c.8 0 1.6 0 1.6.8l3.2 13.6c0 .8 0 1.6-.8 1.6s-1.6 0-1.6-.8l-2.4-13.6c-1.6-.8-.8-.8 0-1.6z" fill="#ff7c10"/><path fill="#e51717" d="M184.912 296.706l-5.483 1.14-6.352-30.549 5.483-1.14z"/><path fill="#d10d0d" d="M178.531 266.4l-5.6.8 6.4 30.4"/><path fill="#e51717" d="M181.289 265.463l45.424-9.456 6.359 30.545-45.425 9.456z"/><path fill="#d10d0d" d="M226.531 256l-44.8 9.6 6.4 30.4"/><g fill="#5e0404"><circle cx="188.931" cy="280" r="1.6"/><circle cx="192.131" cy="279.2" r="1.6"/><circle cx="220.131" cy="272.8" r="1.6"/><circle cx="223.331" cy="272" r="1.6"/></g><path fill="#ff7c10" d="M214.531 277.6l-3.2 5.6-7.2 1.6-4.8-4-1.6-6.4 3.2-5.6 7.2-1.6 4.8 4z"/><g fill="#5e0404"><path d="M211.331 276.8l-2.4 4-4 .8-3.2-2.4-.8-4 2.4-4 4-.8 3.2 2.4zM253.731 263.2c2.4-.8 4 0 4.8 1.6 0 1.6-1.6 3.2-4 3.2l-10.4 2.4c-2.4.8-4 0-4.8-1.6 0-1.6 1.6-3.2 4-3.2l10.4-2.4zM119.331 352s-3.2 8.8-21.6 6.4-24 14.4-24 14.4-6.4-5.6-11.2 2.4-11.2 4-11.2 4l4.8 7.2 9.6-5.6-.8 10.4h7.2v-8.8l6.4 6.4 2.4-7.2-6.4-2.4 3.2-2.4-1.6-1.6s1.6-12.8 16.8-13.6c15.2-.8 17.6 7.2 31.2-4.8l-1.6-5.6-3.2.8z"/></g><path d="M234.531 345.6c8-2.4 12-10.4 10.4-18.4l-5.6-18.4c-2.4-8-10.4-12-18.4-9.6l-90.4 27.2c-8 2.4-12 10.4-9.6 18.4l5.6 18.4c2.4 8 10.4 12 18.4 9.6l89.6-27.2z" fill="#8c1c1c"/><path d="M120.131 344.8l5.6 18.4c2.4 8 10.4 12 18.4 9.6l90.4-27.2c8-2.4 12-10.4 10.4-18.4l-5.6-18.4" fill="#5e0404"/><path d="M124.931 367.2c.8 0 1.6-1.6 1.6-2.4l-6.4-20.8c0-.8-1.6-1.6-2.4-1.6-.8 0-1.6 1.6-1.6 2.4l6.4 20.8c0 .8 1.6 1.6 2.4 1.6z" fill="#ff7c10"/><path fill="#e51717" d="M152.085 371.435l-7.659 2.314-14.344-47.483 7.658-2.314z"/><path fill="#d10d0d" d="M152.131 370.4l-8 2.4-14.4-47.2"/><path fill="#e51717" d="M142.739 321.797l71.22-21.547 14.364 47.48-71.22 21.546z"/><path fill="#d10d0d" d="M228.131 348l-71.2 21.6-14.4-47.2"/><g fill="#5e0404"><circle cx="156.131" cy="344" r="1.6"/><circle cx="162.531" cy="342.4" r="1.6"/><circle cx="204.931" cy="328.8" r="1.6"/><circle cx="211.331" cy="327.2" r="1.6"/></g><path fill="#ff7c10" d="M194.531 326.4l-9.6-4.8-9.6 3.2-5.6 9.6 3.2 9.6 9.6 5.6 9.6-3.2 5.6-9.6z"/><g fill="#5e0404"><path d="M190.531 329.6l-5.6-3.2-7.2 2.4-3.2 5.6 2.4 6.4 5.6 3.2 7.2-1.6 3.2-6.4zM260.131 316.8c3.2-.8 5.6-4 5.6-5.6-.8-2.4-4-3.2-8-1.6l-16 4.8c-3.2.8-5.6 4-5.6 5.6.8 2.4 4 3.2 8 1.6l16-4.8zM165.731 389.6s-4-4-13.6 3.2c-9.6 6.4-17.6-.8-17.6-.8s-2.4 4.8-7.2 1.6c-4.8-3.2-7.2.8-7.2.8l.8-5.6h7.2l-4-4.8 4-2.4 2.4 4.8 1.6-5.6 3.2 3.2-2.4 3.2h2.4l-.8 2.4s4.8 6.4 13.6 2.4 8-9.6 18.4-6.4l.8 3.2-1.6.8z"/></g><path d="M231.331 358.4c4.8-.8 9.6 2.4 11.2 7.2l2.4 12c.8 4.8-2.4 9.6-7.2 11.2l-57.6 12c-4.8.8-10.4-2.4-11.2-7.2l-2.4-12c-.8-4.8 2.4-10.4 7.2-11.2l57.6-12z" fill="#8c1c1c"/><path d="M168.131 392.8l-2.4-12c-.8-4.8 2.4-10.4 7.2-11.2l57.6-12c4.8-.8 9.6 2.4 11.2 7.2l2.4 12" fill="#5e0404"/><path d="M164.931 379.2c.8 0 1.6 0 1.6.8l3.2 13.6c0 .8 0 1.6-.8 1.6s-1.6 0-1.6-.8l-2.4-13.6c-1.6-.8-.8-.8 0-1.6z" fill="#ff7c10"/><path fill="#e51717" d="M184.93 399.905l-5.483 1.14-6.352-30.549 5.483-1.14z"/><path fill="#d10d0d" d="M178.531 368.8l-5.6 1.6 6.4 30.4"/><path fill="#e51717" d="M181.297 368.454l45.424-9.456 6.359 30.544-45.425 9.456z"/><path fill="#d10d0d" d="M226.531 359.2l-44.8 9.6 6.4 29.6"/><g fill="#5e0404"><circle cx="188.931" cy="382.4" r="1.6"/><circle cx="192.131" cy="382.4" r="1.6"/><circle cx="220.131" cy="376" r="1.6"/><circle cx="223.331" cy="375.2" r="1.6"/></g><path fill="#ff7c10" d="M214.531 380.8l-3.2 5.6-7.2 1.6-4.8-4-1.6-6.4 3.2-5.6 7.2-1.6 4.8 4z"/><g fill="#5e0404"><path d="M211.331 380l-2.4 4-4 .8-3.2-2.4-.8-4 2.4-4 4-.8 3.2 2.4zM253.731 366.4c2.4-.8 4 0 4.8 1.6 0 1.6-1.6 3.2-4 3.2l-10.4 2.4c-2.4.8-4 0-4.8-1.6 0-1.6 1.6-3.2 4-3.2l10.4-2.4zM119.331 455.2s-3.2 8.8-21.6 6.4-24 14.4-24 14.4-6.4-5.6-11.2 2.4-11.2 4-11.2 4l4.8 7.2 9.6-5.6-.8 10.4h7.2v-8.8l6.4 6.4 2.4-7.2-5.6-.8 3.2-2.4-2.4-3.2s1.6-12.8 16.8-13.6c15.2-.8 17.6 7.2 31.2-4.8l-1.6-5.6-3.2.8z"/></g><path d="M234.531 448.8c8-2.4 12-10.4 10.4-18.4l-5.6-18.4c-2.4-8-10.4-12-18.4-9.6l-90.4 27.2c-8 2.4-12 10.4-9.6 18.4l5.6 18.4c2.4 8 10.4 12 18.4 9.6l89.6-27.2z" fill="#8c1c1c"/><path d="M120.131 448l5.6 18.4c2.4 8 10.4 12 18.4 9.6l90.4-27.2c8-2.4 12-10.4 10.4-18.4l-5.6-18.4" fill="#5e0404"/><path d="M124.931 469.6c.8 0 1.6-1.6 1.6-2.4l-6.4-20.8c0-.8-1.6-1.6-2.4-1.6-.8 0-1.6 1.6-1.6 2.4l6.4 20.8c0 1.6 1.6 2.4 2.4 1.6z" fill="#ff7c10"/><path fill="#e51717" d="M151.882 473.86l-7.658 2.314-14.345-47.483 7.659-2.314z"/><path fill="#d10d0d" d="M152.131 473.6l-8 2.4-14.4-47.2"/><path fill="#e51717" d="M142.693 424.78l71.22-21.548 14.364 47.48-71.22 21.546z"/><path fill="#d10d0d" d="M228.131 451.2l-71.2 21.6-14.4-48"/><g fill="#5e0404"><circle cx="156.131" cy="447.2" r="1.6"/><circle cx="162.531" cy="444.8" r="1.6"/><circle cx="204.931" cy="432" r="1.6"/><circle cx="211.331" cy="430.4" r="1.6"/></g><path fill="#ff7c10" d="M194.531 429.6l-9.6-4.8-9.6 3.2-5.6 9.6 3.2 9.6 9.6 4.8 9.6-2.4 5.6-9.6z"/><g fill="#5e0404"><path d="M190.531 432.8l-5.6-3.2-7.2 2.4-3.2 5.6 2.4 6.4 5.6 3.2 7.2-1.6 3.2-6.4zM260.131 420c3.2-.8 5.6-4 5.6-5.6-.8-2.4-4-3.2-8-1.6l-16 4.8c-3.2.8-5.6 4-5.6 5.6.8 2.4 4 3.2 8 1.6l16-4.8zM165.731 492s-4-4-13.6 3.2c-9.6 6.4-17.6-.8-17.6-.8s-2.4 5.6-7.2 2.4c-4.8-3.2-7.2.8-7.2.8l.8-5.6h7.2l-4-4.8 4-2.4 2.4 4.8 1.6-5.6 3.2 3.2-2.4 3.2h2.4l-.8 2.4s4.8 6.4 13.6 2.4 8-9.6 18.4-6.4l.8 3.2h-1.6z"/></g><path d="M231.331 461.6c4.8-.8 9.6 2.4 11.2 7.2l2.4 12c.8 4.8-2.4 9.6-7.2 11.2l-57.6 12c-4.8.8-10.4-2.4-11.2-7.2l-3.2-12.8c-.8-4.8 2.4-10.4 7.2-11.2l58.4-11.2z" fill="#8c1c1c"/><path d="M168.131 496l-2.4-12c-.8-4.8 2.4-10.4 7.2-11.2l57.6-12c4.8-.8 9.6 2.4 11.2 7.2l2.4 12" fill="#5e0404"/><path d="M164.931 482.4c.8 0 1.6 0 1.6.8l3.2 13.6c0 .8 0 1.6-.8 1.6s-1.6 0-1.6-.8l-4-13.6c0-.8.8-1.6 1.6-1.6z" fill="#ff7c10"/><path fill="#e51717" d="M184.95 503.103l-5.484 1.14-6.352-30.548 5.483-1.14z"/><path fill="#d10d0d" d="M178.531 472l-5.6 1.6 6.4 29.6"/><path fill="#e51717" d="M181.304 471.5l45.425-9.457 6.358 30.545-45.424 9.456z"/><path fill="#d10d0d" d="M226.531 462.4l-44.8 9.6 6.4 29.6"/><g fill="#5e0404"><circle cx="188.931" cy="485.6" r="1.6"/><circle cx="192.131" cy="484.8" r="1.6"/><circle cx="220.131" cy="479.2" r="1.6"/><circle cx="223.331" cy="478.4" r="1.6"/></g><path fill="#ff7c10" d="M214.531 484l-3.2 5.6-7.2.8-4.8-3.2-1.6-6.4 3.2-5.6 7.2-1.6 4.8 4z"/><g fill="#5e0404"><path d="M211.331 483.2l-2.4 4-4 .8-3.2-2.4-.8-4 2.4-4 4-.8 3.2 2.4zM253.731 469.6c2.4-.8 4 0 4.8 1.6 0 1.6-1.6 3.2-4 3.2l-10.4 2.4c-2.4.8-4 0-4.8-1.6 0-1.6 1.6-3.2 4-3.2l10.4-2.4z"/></g></svg>