<svg xmlns="http://www.w3.org/2000/svg" viewBox="0 0 297 297" width="512" height="512"><g fill="#dcc233"><path d="M233.953 5.571a10.097 10.097 0 0 0-9.423-1.387c-.879.314-21.731 7.91-41.406 24.09-27.197 22.366-38.992 50.21-34.107 80.521 1.026 6.367 2.498 12.748 4.057 19.504 5.957 25.823 12.117 52.527-7.327 78.893-15.598 21.153-37.799 29.032-57.206 31.383-.005-.021-.006-.045-.011-.066-6.047-28.112-23.956-38.366-37.916-42.019-14.203-3.716-26.68-1.246-28.055-.953a10.102 10.102 0 0 0-7.965 10.587c1.168 16.633 6.902 28.143 13.086 35.872-8.486 4.064-17.905 11.252-26.069 23.928a10.098 10.098 0 0 0 1.876 13.103c1.064.921 10.801 9.107 25.034 12.709 3.916.991 8.349 1.678 13.119 1.678 11.962-.001 26.032-4.328 39.288-19.018 18.99 8.078 39.438 12.264 60.484 12.264 23.839 0 47.713-5.57 69.04-16.107 22.049-10.893 41.474-27.189 56.18-47.128 50.945-69.093 36.285-166.821-32.679-217.854zm33.907 173.945c-7.103-.482-12.741-6.543-12.741-13.94 0-5.578-4.523-10.102-10.101-10.102s-10.102 4.523-10.102 10.102c0 7.713-6.124 13.988-13.653 13.988-7.527 0-13.652-6.275-13.652-13.988 0-5.578-4.523-10.102-10.101-10.102-5.579 0-10.102 4.523-10.102 10.102 0 6.036-3.759 11.178-9 13.133 2.01-16.038-.482-31.477-3.523-45.518a119.302 119.302 0 0 0 20.526 5.999 119.282 119.282 0 0 0 23.053 2.236c16.625 0 36.611-3.428 58.283-14.227.496 17.624-2.41 35.42-8.887 52.317zm-98.898-71.456c-3.707-22.997 5.242-46.126 26.597-63.854 11.669-9.689 24.136-15.958 30.842-18.948 25.906 20.871 42.2 49.623 48.009 80.295-24.41 13.944-49.364 18.649-74.203 13.987-16.784-3.153-28.546-9.782-31.245-11.48zM52.197 236.975c-.01 0 .014.002 0 0-2.141-1.112-11.865-6.941-15.875-22.387 10.307.35 25.728 4.47 31.571 24.673-6.622-.35-15.66-2.278-15.696-2.286zm9.786 27.773c-14.145 12.366-28.559 8.652-37.271 4.223 12.126-12.885 24.686-11.969 25.299-11.913l11.972 7.69zm32.58-6.666c13.91-2.139 30.07-6.961 44.923-17.124 2.212 4.655 5.585 8.705 9.744 11.575 5.523 3.808 11.957 5.328 18.165 4.789a27.744 27.744 0 0 0 2.53 6.059 134.413 134.413 0 0 1-28.513 3.074c-16.194 0-31.984-2.848-46.849-8.373zm95.854-1.604c-1.663-1.148-3.382-3.374-3.745-5.368a7.579 7.579 0 0 1 1.229-5.707 10.047 10.047 0 0 0 1.787-5.734 10.088 10.088 0 0 0-4.365-8.316c-4.591-3.168-10.882-2.014-14.051 2.578-2.387 3.462-7.129 4.346-10.572 1.973-1.789-1.233-3.167-3.355-3.687-5.677-.284-1.267-.552-4.052.847-6.079 1.339-1.587 2.871-3.238 4.145-4.967 4.786-6.489 8.356-12.991 10.97-19.454 9.247 0 18.418-3.723 24.535-9.812 6.115 6.089 14.507 9.852 23.753 9.852s17.638-3.763 23.754-9.851a33.826 33.826 0 0 0 13.918 8.376 136.366 136.366 0 0 1-8.562 13.141c-15.229 20.648-36.568 35.807-59.956 45.045z"/><path d="M209.976 76.346c2.656 0 5.263-1.082 7.141-2.961a10.187 10.187 0 0 0 2.96-7.141c0-2.656-1.08-5.263-2.96-7.142a10.13 10.13 0 0 0-7.141-2.959c-2.656 0-5.263 1.07-7.142 2.959a10.16 10.16 0 0 0-2.959 7.142c0 2.656 1.08 5.263 2.959 7.141a10.18 10.18 0 0 0 7.142 2.961z"/></g></svg>