<svg xmlns="http://www.w3.org/2000/svg" viewBox="0 0 297 297" width="512" height="512"><path d="M271.476 73.76c-10.925 0-24.14 4.859-40.871 11.011-1.381.508-2.781 1.023-4.202 1.543-3.011-11.972-10.985-22.842-23.229-31.332-14.74-10.222-34.156-15.85-54.673-15.85s-39.933 5.628-54.673 15.85c-12.245 8.49-20.219 19.361-23.229 31.334-1.422-.521-2.825-1.037-4.207-1.545C49.661 78.619 36.447 73.76 25.524 73.76 15.991 73.76 0 77.833 0 105.114c0 26.714 4.423 65.169 25.493 96.664 24.9 37.219 66.285 56.09 123.007 56.09s98.106-18.871 123.007-56.09c21.07-31.495 25.493-69.95 25.493-96.664 0-27.281-15.991-31.354-25.524-31.354zM148.5 59.199c29.886 0 55.44 15.085 58.813 33.785-17.916 5.824-37.917 10.758-58.813 10.758s-40.897-4.934-58.813-10.757c3.372-18.7 28.927-33.786 58.813-33.786zm0 178.602c-106.15 0-128.433-72.155-128.433-132.686 0-7.402 1.447-9.821 1.892-10.386.174-.223.707-.9 3.565-.9 7.35 0 19.673 4.53 33.941 9.776 24.48 9.002 54.947 20.205 89.034 20.205 34.083 0 64.55-11.203 89.029-20.204 14.271-5.247 26.595-9.777 33.946-9.777 2.861 0 3.393.676 3.566.898.444.565 1.891 2.982 1.891 10.388.002 60.53-22.281 132.686-128.431 132.686z" fill="#dcc233"/></svg>