<svg xmlns="http://www.w3.org/2000/svg" viewBox="0 0 297 297" width="512" height="512"><g fill="#dcc233"><path d="M148.5 87.688c25.481 0 50.507-8.466 71.332-16.065-4.078-6.163-9.667-11.792-16.659-16.641-14.74-10.222-34.156-15.85-54.673-15.85s-39.933 5.628-54.673 15.85c-6.993 4.848-12.582 10.478-16.66 16.642 20.823 7.598 45.848 16.064 71.333 16.064z"/><path d="M66.392 84.771C49.661 78.619 36.447 73.76 25.524 73.76 15.991 73.76 0 77.833 0 105.114c0 26.714 4.423 65.169 25.493 96.664 24.9 37.219 66.285 56.09 123.007 56.09s98.106-18.871 123.007-56.09c21.07-31.495 25.493-69.95 25.493-96.664 0-27.281-15.991-31.354-25.524-31.354-10.925 0-24.14 4.859-40.871 11.011-22.986 8.452-51.594 18.972-82.105 18.972-30.515-.001-59.122-10.52-82.108-18.972z"/></g></svg>