<svg xmlns="http://www.w3.org/2000/svg" viewBox="0 0 29.999 29.999" width="512" height="512"><g fill="#dcc233"><path d="M25.571 5.829c-.507-1.958-2.271-3.412-4.388-3.412-2.118 0-3.881 1.453-4.389 3.412 1.42.459 2.891.706 4.39.706 1.497 0 2.968-.246 4.387-.706zM29.225 7.898a2.26 2.26 0 0 0-2.289-.413h-.002c-1.854.7-3.802 1.05-5.752 1.05a16.26 16.26 0 0 1-4.172-.551 8.094 8.094 0 0 1 2.769 4.775c.27-.045.543-.074.819-.074 1.219 0 2.395.441 3.313 1.244A5.023 5.023 0 0 1 25.321 16a8.83 8.83 0 0 0 4.619-5.889 2.259 2.259 0 0 0-.715-2.213zM17.846 13.33a6.094 6.094 0 0 0-6.03-5.24 6.095 6.095 0 0 0-6.031 5.239c1.952.624 3.973.96 6.031.96s4.079-.335 6.03-.959zM20.599 14.686c-.36 0-.723.064-1.071.196a21.832 21.832 0 0 1-15.422 0l-.002-.001a3.04 3.04 0 0 0-3.068.554 3.033 3.033 0 0 0-.958 2.967 11.845 11.845 0 0 0 11.542 9.18h.394c5.515 0 10.3-3.806 11.541-9.18a3.035 3.035 0 0 0-2.956-3.716z"/></g></svg>