<svg xmlns="http://www.w3.org/2000/svg" viewBox="0 0 480 480"><path fill="#d10d0d" d="M88 0h304v480H88z"/><path fill="#8c0000" d="M88 0h304v480"/><path fill="#ffc50b" d="M368 456H112V56h16v384h224V56h16z"/><g fill="#ff7c10"><path d="M368 456V56h-16v384zM128 440V56h-16"/></g><path fill="#ff642e" d="M88 64.8L240 140l152-75.2V0H88z"/><path fill="#ff0606" d="M240 140.8l152-76V0H88"/><path fill="#d10d0d" d="M240 140.8l152-76V0"/><circle cx="240" cy="282.4" r="82.4" fill="#ffc50b"/><path d="M240 200.8c45.6 0 82.4 36.8 82.4 82.4s-36.8 81.6-82.4 81.6" fill="#ff7c10"/><path fill="#d10d0d" d="M240.272 325.495l-42.432-42.419 42.42-42.431 42.43 42.42z"/><path fill="#8c0000" d="M240 240.8l42.4 41.6-42.4 42.4"/><g fill="#ffc50b"><circle cx="240" cy="29.6" r="6.4"/><circle cx="240" cy="62.4" r="6.4"/><circle cx="240" cy="95.2" r="6.4"/></g><g fill="#8c0000"><circle cx="240" cy="226.4" r="5.6"/><circle cx="240" cy="339.2" r="5.6"/><circle cx="296" cy="282.4" r="5.6"/><circle cx="184" cy="282.4" r="5.6"/></g></svg>